<?xml version="1.0" encoding="utf-8" standalone="no"?>
<!DOCTYPE svg PUBLIC "-//W3C//DTD SVG 1.1//EN"
  "http://www.w3.org/Graphics/SVG/1.1/DTD/svg11.dtd">
<svg xmlns:xlink="http://www.w3.org/1999/xlink" width="504pt" height="180pt" viewBox="0 0 504 180" xmlns="http://www.w3.org/2000/svg" version="1.1">
 <metadata>
  <rdf:RDF xmlns:dc="http://purl.org/dc/elements/1.1/" xmlns:cc="http://creativecommons.org/ns#" xmlns:rdf="http://www.w3.org/1999/02/22-rdf-syntax-ns#">
   <cc:Work>
    <dc:type rdf:resource="http://purl.org/dc/dcmitype/StillImage"/>
    <dc:date>2021-11-19T18:11:16.866699</dc:date>
    <dc:format>image/svg+xml</dc:format>
    <dc:creator>
     <cc:Agent>
      <dc:title>Matplotlib v3.5.0, https://matplotlib.org/</dc:title>
     </cc:Agent>
    </dc:creator>
   </cc:Work>
  </rdf:RDF>
 </metadata>
 <defs>
  <style type="text/css">*{stroke-linejoin: round; stroke-linecap: butt}</style>
 </defs>
 <g id="figure_1">
  <g id="patch_1">
   <path d="M 0 180 
L 504 180 
L 504 0 
L 0 0 
z
" style="fill: #ffffff"/>
  </g>
  <g id="axes_1">
   <g id="patch_2">
    <path d="M 38.27 138.04 
L 491.899406 138.04 
L 491.899406 26.88 
L 38.27 26.88 
z
" style="fill: #ffffff"/>
   </g>
   <g id="matplotlib.axis_1">
    <g id="xtick_1">
     <g id="line2d_1">
      <defs>
       <path id="mf8d02aa66f" d="M 0 0 
L 0 3.5 
" style="stroke: #000000; stroke-width: 0.8"/>
      </defs>
      <g>
       <use xlink:href="#mf8d02aa66f" x="38.27" y="138.04" style="stroke: #000000; stroke-width: 0.8"/>
      </g>
     </g>
     <g id="text_1">
      <!-- 0 -->
      <g transform="translate(35.08875 152.638438)scale(0.1 -0.1)">
       <defs>
        <path id="DejaVuSans-30" d="M 2034 4250 
Q 1547 4250 1301 3770 
Q 1056 3291 1056 2328 
Q 1056 1369 1301 889 
Q 1547 409 2034 409 
Q 2525 409 2770 889 
Q 3016 1369 3016 2328 
Q 3016 3291 2770 3770 
Q 2525 4250 2034 4250 
z
M 2034 4750 
Q 2819 4750 3233 4129 
Q 3647 3509 3647 2328 
Q 3647 1150 3233 529 
Q 2819 -91 2034 -91 
Q 1250 -91 836 529 
Q 422 1150 422 2328 
Q 422 3509 836 4129 
Q 1250 4750 2034 4750 
z
" transform="scale(0.015625)"/>
       </defs>
       <use xlink:href="#DejaVuSans-30"/>
      </g>
     </g>
    </g>
    <g id="xtick_2">
     <g id="line2d_2">
      <g>
       <use xlink:href="#mf8d02aa66f" x="101.714672" y="138.04" style="stroke: #000000; stroke-width: 0.8"/>
      </g>
     </g>
     <g id="text_2">
      <!-- 20 -->
      <g transform="translate(95.352172 152.638438)scale(0.1 -0.1)">
       <defs>
        <path id="DejaVuSans-32" d="M 1228 531 
L 3431 531 
L 3431 0 
L 469 0 
L 469 531 
Q 828 903 1448 1529 
Q 2069 2156 2228 2338 
Q 2531 2678 2651 2914 
Q 2772 3150 2772 3378 
Q 2772 3750 2511 3984 
Q 2250 4219 1831 4219 
Q 1534 4219 1204 4116 
Q 875 4013 500 3803 
L 500 4441 
Q 881 4594 1212 4672 
Q 1544 4750 1819 4750 
Q 2544 4750 2975 4387 
Q 3406 4025 3406 3419 
Q 3406 3131 3298 2873 
Q 3191 2616 2906 2266 
Q 2828 2175 2409 1742 
Q 1991 1309 1228 531 
z
" transform="scale(0.015625)"/>
       </defs>
       <use xlink:href="#DejaVuSans-32"/>
       <use xlink:href="#DejaVuSans-30" x="63.623047"/>
      </g>
     </g>
    </g>
    <g id="xtick_3">
     <g id="line2d_3">
      <g>
       <use xlink:href="#mf8d02aa66f" x="165.159344" y="138.04" style="stroke: #000000; stroke-width: 0.8"/>
      </g>
     </g>
     <g id="text_3">
      <!-- 40 -->
      <g transform="translate(158.796844 152.638438)scale(0.1 -0.1)">
       <defs>
        <path id="DejaVuSans-34" d="M 2419 4116 
L 825 1625 
L 2419 1625 
L 2419 4116 
z
M 2253 4666 
L 3047 4666 
L 3047 1625 
L 3713 1625 
L 3713 1100 
L 3047 1100 
L 3047 0 
L 2419 0 
L 2419 1100 
L 313 1100 
L 313 1709 
L 2253 4666 
z
" transform="scale(0.015625)"/>
       </defs>
       <use xlink:href="#DejaVuSans-34"/>
       <use xlink:href="#DejaVuSans-30" x="63.623047"/>
      </g>
     </g>
    </g>
    <g id="xtick_4">
     <g id="line2d_4">
      <g>
       <use xlink:href="#mf8d02aa66f" x="228.604016" y="138.04" style="stroke: #000000; stroke-width: 0.8"/>
      </g>
     </g>
     <g id="text_4">
      <!-- 60 -->
      <g transform="translate(222.241516 152.638438)scale(0.1 -0.1)">
       <defs>
        <path id="DejaVuSans-36" d="M 2113 2584 
Q 1688 2584 1439 2293 
Q 1191 2003 1191 1497 
Q 1191 994 1439 701 
Q 1688 409 2113 409 
Q 2538 409 2786 701 
Q 3034 994 3034 1497 
Q 3034 2003 2786 2293 
Q 2538 2584 2113 2584 
z
M 3366 4563 
L 3366 3988 
Q 3128 4100 2886 4159 
Q 2644 4219 2406 4219 
Q 1781 4219 1451 3797 
Q 1122 3375 1075 2522 
Q 1259 2794 1537 2939 
Q 1816 3084 2150 3084 
Q 2853 3084 3261 2657 
Q 3669 2231 3669 1497 
Q 3669 778 3244 343 
Q 2819 -91 2113 -91 
Q 1303 -91 875 529 
Q 447 1150 447 2328 
Q 447 3434 972 4092 
Q 1497 4750 2381 4750 
Q 2619 4750 2861 4703 
Q 3103 4656 3366 4563 
z
" transform="scale(0.015625)"/>
       </defs>
       <use xlink:href="#DejaVuSans-36"/>
       <use xlink:href="#DejaVuSans-30" x="63.623047"/>
      </g>
     </g>
    </g>
    <g id="xtick_5">
     <g id="line2d_5">
      <g>
       <use xlink:href="#mf8d02aa66f" x="292.048688" y="138.04" style="stroke: #000000; stroke-width: 0.8"/>
      </g>
     </g>
     <g id="text_5">
      <!-- 80 -->
      <g transform="translate(285.686188 152.638438)scale(0.1 -0.1)">
       <defs>
        <path id="DejaVuSans-38" d="M 2034 2216 
Q 1584 2216 1326 1975 
Q 1069 1734 1069 1313 
Q 1069 891 1326 650 
Q 1584 409 2034 409 
Q 2484 409 2743 651 
Q 3003 894 3003 1313 
Q 3003 1734 2745 1975 
Q 2488 2216 2034 2216 
z
M 1403 2484 
Q 997 2584 770 2862 
Q 544 3141 544 3541 
Q 544 4100 942 4425 
Q 1341 4750 2034 4750 
Q 2731 4750 3128 4425 
Q 3525 4100 3525 3541 
Q 3525 3141 3298 2862 
Q 3072 2584 2669 2484 
Q 3125 2378 3379 2068 
Q 3634 1759 3634 1313 
Q 3634 634 3220 271 
Q 2806 -91 2034 -91 
Q 1263 -91 848 271 
Q 434 634 434 1313 
Q 434 1759 690 2068 
Q 947 2378 1403 2484 
z
M 1172 3481 
Q 1172 3119 1398 2916 
Q 1625 2713 2034 2713 
Q 2441 2713 2670 2916 
Q 2900 3119 2900 3481 
Q 2900 3844 2670 4047 
Q 2441 4250 2034 4250 
Q 1625 4250 1398 4047 
Q 1172 3844 1172 3481 
z
" transform="scale(0.015625)"/>
       </defs>
       <use xlink:href="#DejaVuSans-38"/>
       <use xlink:href="#DejaVuSans-30" x="63.623047"/>
      </g>
     </g>
    </g>
    <g id="xtick_6">
     <g id="line2d_6">
      <g>
       <use xlink:href="#mf8d02aa66f" x="355.493361" y="138.04" style="stroke: #000000; stroke-width: 0.8"/>
      </g>
     </g>
     <g id="text_6">
      <!-- 100 -->
      <g transform="translate(345.949611 152.638438)scale(0.1 -0.1)">
       <defs>
        <path id="DejaVuSans-31" d="M 794 531 
L 1825 531 
L 1825 4091 
L 703 3866 
L 703 4441 
L 1819 4666 
L 2450 4666 
L 2450 531 
L 3481 531 
L 3481 0 
L 794 0 
L 794 531 
z
" transform="scale(0.015625)"/>
       </defs>
       <use xlink:href="#DejaVuSans-31"/>
       <use xlink:href="#DejaVuSans-30" x="63.623047"/>
       <use xlink:href="#DejaVuSans-30" x="127.246094"/>
      </g>
     </g>
    </g>
    <g id="xtick_7">
     <g id="line2d_7">
      <g>
       <use xlink:href="#mf8d02aa66f" x="418.938033" y="138.04" style="stroke: #000000; stroke-width: 0.8"/>
      </g>
     </g>
     <g id="text_7">
      <!-- 120 -->
      <g transform="translate(409.394283 152.638438)scale(0.1 -0.1)">
       <use xlink:href="#DejaVuSans-31"/>
       <use xlink:href="#DejaVuSans-32" x="63.623047"/>
       <use xlink:href="#DejaVuSans-30" x="127.246094"/>
      </g>
     </g>
    </g>
    <g id="xtick_8">
     <g id="line2d_8">
      <g>
       <use xlink:href="#mf8d02aa66f" x="482.382705" y="138.04" style="stroke: #000000; stroke-width: 0.8"/>
      </g>
     </g>
     <g id="text_8">
      <!-- 140 -->
      <g transform="translate(472.838955 152.638438)scale(0.1 -0.1)">
       <use xlink:href="#DejaVuSans-31"/>
       <use xlink:href="#DejaVuSans-34" x="63.623047"/>
       <use xlink:href="#DejaVuSans-30" x="127.246094"/>
      </g>
     </g>
    </g>
    <g id="text_9">
     <!-- Time -->
     <g transform="translate(252.851109 166.316563)scale(0.1 -0.1)">
      <defs>
       <path id="DejaVuSans-54" d="M -19 4666 
L 3928 4666 
L 3928 4134 
L 2272 4134 
L 2272 0 
L 1638 0 
L 1638 4134 
L -19 4134 
L -19 4666 
z
" transform="scale(0.015625)"/>
       <path id="DejaVuSans-69" d="M 603 3500 
L 1178 3500 
L 1178 0 
L 603 0 
L 603 3500 
z
M 603 4863 
L 1178 4863 
L 1178 4134 
L 603 4134 
L 603 4863 
z
" transform="scale(0.015625)"/>
       <path id="DejaVuSans-6d" d="M 3328 2828 
Q 3544 3216 3844 3400 
Q 4144 3584 4550 3584 
Q 5097 3584 5394 3201 
Q 5691 2819 5691 2113 
L 5691 0 
L 5113 0 
L 5113 2094 
Q 5113 2597 4934 2840 
Q 4756 3084 4391 3084 
Q 3944 3084 3684 2787 
Q 3425 2491 3425 1978 
L 3425 0 
L 2847 0 
L 2847 2094 
Q 2847 2600 2669 2842 
Q 2491 3084 2119 3084 
Q 1678 3084 1418 2786 
Q 1159 2488 1159 1978 
L 1159 0 
L 581 0 
L 581 3500 
L 1159 3500 
L 1159 2956 
Q 1356 3278 1631 3431 
Q 1906 3584 2284 3584 
Q 2666 3584 2933 3390 
Q 3200 3197 3328 2828 
z
" transform="scale(0.015625)"/>
       <path id="DejaVuSans-65" d="M 3597 1894 
L 3597 1613 
L 953 1613 
Q 991 1019 1311 708 
Q 1631 397 2203 397 
Q 2534 397 2845 478 
Q 3156 559 3463 722 
L 3463 178 
Q 3153 47 2828 -22 
Q 2503 -91 2169 -91 
Q 1331 -91 842 396 
Q 353 884 353 1716 
Q 353 2575 817 3079 
Q 1281 3584 2069 3584 
Q 2775 3584 3186 3129 
Q 3597 2675 3597 1894 
z
M 3022 2063 
Q 3016 2534 2758 2815 
Q 2500 3097 2075 3097 
Q 1594 3097 1305 2825 
Q 1016 2553 972 2059 
L 3022 2063 
z
" transform="scale(0.015625)"/>
      </defs>
      <use xlink:href="#DejaVuSans-54"/>
      <use xlink:href="#DejaVuSans-69" x="57.958984"/>
      <use xlink:href="#DejaVuSans-6d" x="85.742188"/>
      <use xlink:href="#DejaVuSans-65" x="183.154297"/>
     </g>
    </g>
   </g>
   <g id="matplotlib.axis_2">
    <g id="ytick_1">
     <g id="line2d_9">
      <defs>
       <path id="m578ca0b596" d="M 0 0 
L -3.5 0 
" style="stroke: #000000; stroke-width: 0.8"/>
      </defs>
      <g>
       <use xlink:href="#m578ca0b596" x="38.27" y="138.04" style="stroke: #000000; stroke-width: 0.8"/>
      </g>
     </g>
     <g id="text_10">
      <!-- 0 -->
      <g transform="translate(24.9075 141.839219)scale(0.1 -0.1)">
       <use xlink:href="#DejaVuSans-30"/>
      </g>
     </g>
    </g>
    <g id="ytick_2">
     <g id="line2d_10">
      <g>
       <use xlink:href="#m578ca0b596" x="38.27" y="115.808" style="stroke: #000000; stroke-width: 0.8"/>
      </g>
     </g>
     <g id="text_11">
      <!-- 1 -->
      <g transform="translate(24.9075 119.607219)scale(0.1 -0.1)">
       <use xlink:href="#DejaVuSans-31"/>
      </g>
     </g>
    </g>
    <g id="ytick_3">
     <g id="line2d_11">
      <g>
       <use xlink:href="#m578ca0b596" x="38.27" y="93.576" style="stroke: #000000; stroke-width: 0.8"/>
      </g>
     </g>
     <g id="text_12">
      <!-- 2 -->
      <g transform="translate(24.9075 97.375219)scale(0.1 -0.1)">
       <use xlink:href="#DejaVuSans-32"/>
      </g>
     </g>
    </g>
    <g id="ytick_4">
     <g id="line2d_12">
      <g>
       <use xlink:href="#m578ca0b596" x="38.27" y="71.344" style="stroke: #000000; stroke-width: 0.8"/>
      </g>
     </g>
     <g id="text_13">
      <!-- 3 -->
      <g transform="translate(24.9075 75.143219)scale(0.1 -0.1)">
       <defs>
        <path id="DejaVuSans-33" d="M 2597 2516 
Q 3050 2419 3304 2112 
Q 3559 1806 3559 1356 
Q 3559 666 3084 287 
Q 2609 -91 1734 -91 
Q 1441 -91 1130 -33 
Q 819 25 488 141 
L 488 750 
Q 750 597 1062 519 
Q 1375 441 1716 441 
Q 2309 441 2620 675 
Q 2931 909 2931 1356 
Q 2931 1769 2642 2001 
Q 2353 2234 1838 2234 
L 1294 2234 
L 1294 2753 
L 1863 2753 
Q 2328 2753 2575 2939 
Q 2822 3125 2822 3475 
Q 2822 3834 2567 4026 
Q 2313 4219 1838 4219 
Q 1578 4219 1281 4162 
Q 984 4106 628 3988 
L 628 4550 
Q 988 4650 1302 4700 
Q 1616 4750 1894 4750 
Q 2613 4750 3031 4423 
Q 3450 4097 3450 3541 
Q 3450 3153 3228 2886 
Q 3006 2619 2597 2516 
z
" transform="scale(0.015625)"/>
       </defs>
       <use xlink:href="#DejaVuSans-33"/>
      </g>
     </g>
    </g>
    <g id="ytick_5">
     <g id="line2d_13">
      <g>
       <use xlink:href="#m578ca0b596" x="38.27" y="49.112" style="stroke: #000000; stroke-width: 0.8"/>
      </g>
     </g>
     <g id="text_14">
      <!-- 4 -->
      <g transform="translate(24.9075 52.911219)scale(0.1 -0.1)">
       <use xlink:href="#DejaVuSans-34"/>
      </g>
     </g>
    </g>
    <g id="ytick_6">
     <g id="line2d_14">
      <g>
       <use xlink:href="#m578ca0b596" x="38.27" y="26.88" style="stroke: #000000; stroke-width: 0.8"/>
      </g>
     </g>
     <g id="text_15">
      <!-- 5 -->
      <g transform="translate(24.9075 30.679219)scale(0.1 -0.1)">
       <defs>
        <path id="DejaVuSans-35" d="M 691 4666 
L 3169 4666 
L 3169 4134 
L 1269 4134 
L 1269 2991 
Q 1406 3038 1543 3061 
Q 1681 3084 1819 3084 
Q 2600 3084 3056 2656 
Q 3513 2228 3513 1497 
Q 3513 744 3044 326 
Q 2575 -91 1722 -91 
Q 1428 -91 1123 -41 
Q 819 9 494 109 
L 494 744 
Q 775 591 1075 516 
Q 1375 441 1709 441 
Q 2250 441 2565 725 
Q 2881 1009 2881 1497 
Q 2881 1984 2565 2268 
Q 2250 2553 1709 2553 
Q 1456 2553 1204 2497 
Q 953 2441 691 2322 
L 691 4666 
z
" transform="scale(0.015625)"/>
       </defs>
       <use xlink:href="#DejaVuSans-35"/>
      </g>
     </g>
    </g>
    <g id="text_16">
     <!-- Value -->
     <g transform="translate(18.827813 96.19125)rotate(-90)scale(0.1 -0.1)">
      <defs>
       <path id="DejaVuSans-56" d="M 1831 0 
L 50 4666 
L 709 4666 
L 2188 738 
L 3669 4666 
L 4325 4666 
L 2547 0 
L 1831 0 
z
" transform="scale(0.015625)"/>
       <path id="DejaVuSans-61" d="M 2194 1759 
Q 1497 1759 1228 1600 
Q 959 1441 959 1056 
Q 959 750 1161 570 
Q 1363 391 1709 391 
Q 2188 391 2477 730 
Q 2766 1069 2766 1631 
L 2766 1759 
L 2194 1759 
z
M 3341 1997 
L 3341 0 
L 2766 0 
L 2766 531 
Q 2569 213 2275 61 
Q 1981 -91 1556 -91 
Q 1019 -91 701 211 
Q 384 513 384 1019 
Q 384 1609 779 1909 
Q 1175 2209 1959 2209 
L 2766 2209 
L 2766 2266 
Q 2766 2663 2505 2880 
Q 2244 3097 1772 3097 
Q 1472 3097 1187 3025 
Q 903 2953 641 2809 
L 641 3341 
Q 956 3463 1253 3523 
Q 1550 3584 1831 3584 
Q 2591 3584 2966 3190 
Q 3341 2797 3341 1997 
z
" transform="scale(0.015625)"/>
       <path id="DejaVuSans-6c" d="M 603 4863 
L 1178 4863 
L 1178 0 
L 603 0 
L 603 4863 
z
" transform="scale(0.015625)"/>
       <path id="DejaVuSans-75" d="M 544 1381 
L 544 3500 
L 1119 3500 
L 1119 1403 
Q 1119 906 1312 657 
Q 1506 409 1894 409 
Q 2359 409 2629 706 
Q 2900 1003 2900 1516 
L 2900 3500 
L 3475 3500 
L 3475 0 
L 2900 0 
L 2900 538 
Q 2691 219 2414 64 
Q 2138 -91 1772 -91 
Q 1169 -91 856 284 
Q 544 659 544 1381 
z
M 1991 3584 
L 1991 3584 
z
" transform="scale(0.015625)"/>
      </defs>
      <use xlink:href="#DejaVuSans-56"/>
      <use xlink:href="#DejaVuSans-61" x="60.658203"/>
      <use xlink:href="#DejaVuSans-6c" x="121.9375"/>
      <use xlink:href="#DejaVuSans-75" x="149.720703"/>
      <use xlink:href="#DejaVuSans-65" x="213.099609"/>
     </g>
    </g>
   </g>
   <g id="patch_3">
    <path d="M 38.27 138.04 
L 38.27 26.88 
" style="fill: none; stroke: #000000; stroke-width: 0.8; stroke-linejoin: miter; stroke-linecap: square"/>
   </g>
   <g id="patch_4">
    <path d="M 491.899406 138.04 
L 491.899406 26.88 
" style="fill: none; stroke: #000000; stroke-width: 0.8; stroke-linejoin: miter; stroke-linecap: square"/>
   </g>
   <g id="patch_5">
    <path d="M 38.27 138.04 
L 491.899406 138.04 
" style="fill: none; stroke: #000000; stroke-width: 0.8; stroke-linejoin: miter; stroke-linecap: square"/>
   </g>
   <g id="patch_6">
    <path d="M 38.27 26.88 
L 491.899406 26.88 
" style="fill: none; stroke: #000000; stroke-width: 0.8; stroke-linejoin: miter; stroke-linecap: square"/>
   </g>
   <g id="line2d_15">
    <path d="M 38.27 128.137042 
L 63.647869 127.975001 
L 66.820102 123.125987 
L 73.16457 120.140563 
L 76.336803 107.704024 
L 79.509037 96.182137 
L 82.68127 89.351166 
L 85.853504 87.18373 
L 89.025738 86.2903 
L 92.197971 86.469331 
L 95.370205 87.631046 
L 98.542439 90.197283 
L 104.886906 96.22854 
L 108.059139 98.607157 
L 111.231373 100.215463 
L 114.403607 101.329222 
L 117.57584 102.247394 
L 130.264775 105.190392 
L 136.609242 106.650752 
L 142.953709 108.105963 
L 149.298176 108.984286 
L 152.47041 109.445142 
L 161.987111 111.190363 
L 165.159344 111.489265 
L 168.331578 111.47511 
L 171.503811 111.12153 
L 174.676045 110.376409 
L 177.848279 109.377537 
L 181.020512 107.619839 
L 184.192746 106.760696 
L 187.364979 105.21676 
L 190.537213 102.213778 
L 193.709447 99.776312 
L 196.88168 98.122475 
L 200.053914 97.140418 
L 203.226147 96.832447 
L 206.398381 96.871178 
L 209.570615 96.786325 
L 212.742848 96.998666 
L 219.087316 98.683578 
L 231.77625 101.284133 
L 238.120717 102.666647 
L 247.637418 104.535579 
L 253.981885 105.452702 
L 260.326352 106.348713 
L 269.843053 108.18056 
L 276.18752 109.312364 
L 282.531988 110.258261 
L 288.876455 111.013108 
L 295.220922 111.568245 
L 307.909856 112.329747 
L 317.426557 113.020456 
L 333.287725 114.510827 
L 358.665594 116.883689 
L 409.421332 120.801712 
L 422.110266 121.624153 
L 434.799201 122.246916 
L 453.832602 122.941315 
L 463.349303 123.222758 
L 466.521537 122.826862 
L 469.69377 100.414405 
L 472.866004 79.005115 
L 476.038238 67.635092 
L 479.210471 59.926268 
L 482.382705 53.61314 
L 485.554938 47.990166 
L 488.727172 44.20606 
L 491.899406 40.610461 
L 491.899406 40.610461 
" clip-path="url(#p54721abe36)" style="fill: none; stroke: #999999; stroke-opacity: 0.33; stroke-width: 1.5; stroke-linecap: square"/>
   </g>
   <g id="line2d_16">
    <path d="M 38.27 128.137298 
L 82.68127 127.963143 
L 130.264775 127.790705 
L 146.125943 127.503678 
L 158.814877 127.044159 
L 165.159344 126.753863 
L 177.848279 125.471926 
L 184.192746 123.71729 
L 187.364979 122.546159 
L 190.537213 120.824456 
L 193.709447 118.698571 
L 196.88168 117.219139 
L 200.053914 116.246104 
L 203.226147 115.704216 
L 206.398381 115.568644 
L 209.570615 115.721299 
L 212.742848 116.049057 
L 215.915082 116.594502 
L 231.77625 120.032296 
L 238.120717 121.049852 
L 241.292951 121.275828 
L 244.465184 120.782998 
L 250.809652 118.535843 
L 253.981885 117.175657 
L 257.154119 115.127092 
L 260.326352 109.305876 
L 263.498586 101.298882 
L 266.67082 98.063544 
L 269.843053 96.243371 
L 273.015287 94.983095 
L 276.18752 94.037853 
L 279.359754 93.397982 
L 282.531988 93.066567 
L 285.704221 92.977317 
L 288.876455 93.084525 
L 292.048688 93.404131 
L 295.220922 93.913312 
L 301.565389 95.360842 
L 317.426557 99.021303 
L 333.287725 102.219603 
L 342.804426 104.481747 
L 365.010061 110.073996 
L 374.526762 112.25867 
L 384.043463 114.039982 
L 393.560164 115.608411 
L 399.904631 116.509888 
L 409.421332 117.607487 
L 418.938033 118.441494 
L 437.971434 119.729871 
L 463.349303 121.370863 
L 466.521537 119.248868 
L 469.69377 108.762035 
L 472.866004 104.032398 
L 476.038238 80.028709 
L 479.210471 63.911449 
L 482.382705 53.72912 
L 485.554938 48.137382 
L 488.727172 43.422568 
L 491.899406 38.967066 
L 491.899406 38.967066 
" clip-path="url(#p54721abe36)" style="fill: none; stroke: #999999; stroke-opacity: 0.33; stroke-width: 1.5; stroke-linecap: square"/>
   </g>
   <g id="line2d_17">
    <path d="M 38.27 128.137042 
L 130.264775 127.466831 
L 149.298176 127.10022 
L 161.987111 126.595812 
L 177.848279 125.732152 
L 187.364979 125.506015 
L 190.537213 125.037615 
L 196.88168 123.772412 
L 200.053914 122.726754 
L 203.226147 120.147402 
L 212.742848 107.687039 
L 215.915082 103.345988 
L 219.087316 99.796329 
L 222.259549 98.346859 
L 225.431783 97.729362 
L 231.77625 97.267806 
L 234.948484 97.096956 
L 241.292951 97.206322 
L 247.637418 97.377555 
L 250.809652 97.620643 
L 257.154119 98.338606 
L 260.326352 98.467072 
L 263.498586 98.254384 
L 266.67082 97.65388 
L 269.843053 96.751238 
L 276.18752 94.713399 
L 279.359754 93.869959 
L 282.531988 93.243408 
L 285.704221 92.913366 
L 288.876455 92.878711 
L 292.048688 93.098423 
L 295.220922 93.56013 
L 301.565389 94.910624 
L 314.254324 98.075589 
L 330.115492 102.099348 
L 339.632193 104.518466 
L 349.148893 106.930137 
L 358.665594 109.109458 
L 368.182295 111.175466 
L 377.698996 112.847388 
L 390.38793 114.747707 
L 403.076865 116.377161 
L 412.593565 117.371875 
L 425.2825 118.425877 
L 441.143668 119.468909 
L 450.660369 119.996801 
L 488.727172 122.364508 
L 491.899406 122.504995 
L 491.899406 122.504995 
" clip-path="url(#p54721abe36)" style="fill: none; stroke: #999999; stroke-opacity: 0.33; stroke-width: 1.5; stroke-linecap: square"/>
   </g>
   <g id="line2d_18">
    <path d="M 38.27 128.135662 
L 82.68127 127.939977 
L 133.437008 127.780338 
L 146.125943 127.607789 
L 158.814877 127.208441 
L 177.848279 126.526471 
L 190.537213 126.323817 
L 193.709447 126.050883 
L 196.88168 125.384139 
L 200.053914 125.250678 
L 203.226147 124.844376 
L 206.398381 123.951702 
L 209.570615 122.00924 
L 212.742848 119.801799 
L 215.915082 117.980422 
L 219.087316 116.561934 
L 222.259549 114.729556 
L 225.431783 113.409744 
L 228.604016 113.049301 
L 231.77625 113.277025 
L 234.948484 113.632862 
L 241.292951 113.955616 
L 253.981885 114.289822 
L 257.154119 114.342104 
L 260.326352 114.532127 
L 266.67082 115.274272 
L 276.18752 116.405325 
L 285.704221 117.596061 
L 295.220922 118.76285 
L 301.565389 119.229364 
L 314.254324 119.990648 
L 330.115492 120.977905 
L 339.632193 121.268242 
L 368.182295 121.616666 
L 371.354529 121.365626 
L 374.526762 120.910115 
L 377.698996 120.227021 
L 380.871229 118.655087 
L 384.043463 116.119676 
L 387.215697 113.225769 
L 390.38793 110.027948 
L 393.560164 107.160493 
L 396.732397 105.274305 
L 399.904631 104.013645 
L 403.076865 103.398752 
L 406.249098 103.503448 
L 409.421332 104.207426 
L 415.765799 106.006906 
L 418.938033 106.619066 
L 422.110266 107.018553 
L 428.454733 107.455483 
L 434.799201 107.620517 
L 437.971434 107.833723 
L 441.143668 108.233401 
L 447.488135 109.30823 
L 450.660369 109.712991 
L 472.866004 111.506385 
L 479.210471 111.90186 
L 485.554938 112.068916 
L 491.899406 112.138984 
L 491.899406 112.138984 
" clip-path="url(#p54721abe36)" style="fill: none; stroke: #999999; stroke-opacity: 0.33; stroke-width: 1.5; stroke-linecap: square"/>
   </g>
   <g id="line2d_19">
    <path d="M 38.27 128.136747 
L 79.509037 127.813387 
L 89.025738 127.518121 
L 104.886906 126.822504 
L 111.231373 126.214112 
L 117.57584 125.463453 
L 120.748074 124.731462 
L 127.092541 122.797656 
L 130.264775 121.674965 
L 133.437008 120.399129 
L 136.609242 118.98529 
L 139.781475 117.302748 
L 142.953709 114.580709 
L 146.125943 112.765548 
L 149.298176 112.126727 
L 155.642643 111.73875 
L 158.814877 111.285242 
L 161.987111 110.950098 
L 168.331578 110.810133 
L 177.848279 110.721357 
L 181.020512 110.30208 
L 184.192746 109.511963 
L 187.364979 107.898675 
L 190.537213 104.845015 
L 193.709447 102.039908 
L 196.88168 100.091826 
L 200.053914 98.867829 
L 203.226147 98.075883 
L 206.398381 97.702117 
L 209.570615 97.458651 
L 212.742848 96.992064 
L 215.915082 96.321085 
L 228.604016 92.238366 
L 231.77625 91.520532 
L 234.948484 91.174328 
L 238.120717 91.417606 
L 241.292951 92.119947 
L 244.465184 93.094649 
L 253.981885 96.706486 
L 257.154119 97.722362 
L 260.326352 98.526974 
L 263.498586 99.070049 
L 266.67082 99.330562 
L 273.015287 99.369881 
L 276.18752 99.180639 
L 279.359754 98.795806 
L 282.531988 98.199248 
L 285.704221 97.370381 
L 292.048688 95.436838 
L 295.220922 94.618697 
L 298.393156 94.024755 
L 301.565389 93.571929 
L 304.737623 93.262755 
L 311.08209 92.981154 
L 314.254324 92.909809 
L 317.426557 92.966716 
L 320.598791 93.174883 
L 323.771024 93.550043 
L 326.943258 94.089663 
L 333.287725 95.605989 
L 355.493361 101.4818 
L 374.526762 106.039515 
L 390.38793 109.417821 
L 396.732397 110.464708 
L 406.249098 111.4723 
L 412.593565 111.990795 
L 422.110266 112.549931 
L 444.315902 113.340528 
L 450.660369 113.261017 
L 460.17707 112.901742 
L 476.038238 111.221551 
L 482.382705 110.322384 
L 491.899406 109.296473 
L 491.899406 109.296473 
" clip-path="url(#p54721abe36)" style="fill: none; stroke: #999999; stroke-opacity: 0.33; stroke-width: 1.5; stroke-linecap: square"/>
   </g>
   <g id="line2d_20">
    <path d="M 38.27 128.137245 
L 82.68127 127.966953 
L 133.437008 127.830422 
L 146.125943 127.665584 
L 158.814877 127.274673 
L 177.848279 126.582611 
L 196.88168 126.28507 
L 203.226147 126.093718 
L 206.398381 125.65344 
L 209.570615 122.725331 
L 212.742848 119.054205 
L 215.915082 117.521068 
L 219.087316 116.318805 
L 222.259549 114.701977 
L 225.431783 112.879069 
L 228.604016 111.189939 
L 231.77625 109.793903 
L 238.120717 107.427239 
L 241.292951 106.619166 
L 244.465184 106.238965 
L 250.809652 106.001356 
L 253.981885 105.881347 
L 263.498586 105.133123 
L 266.67082 105.213153 
L 273.015287 105.855128 
L 279.359754 106.580703 
L 285.704221 106.978489 
L 292.048688 107.054111 
L 298.393156 106.795825 
L 304.737623 106.238486 
L 307.909856 106.079976 
L 311.08209 106.066219 
L 317.426557 106.377993 
L 323.771024 106.952771 
L 333.287725 108.200707 
L 371.354529 113.541237 
L 390.38793 115.886362 
L 399.904631 116.83238 
L 422.110266 118.688208 
L 450.660369 120.971319 
L 463.349303 121.805352 
L 476.038238 122.432529 
L 491.899406 123.034735 
L 491.899406 123.034735 
" clip-path="url(#p54721abe36)" style="fill: none; stroke: #999999; stroke-opacity: 0.33; stroke-width: 1.5; stroke-linecap: square"/>
   </g>
   <g id="line2d_21">
    <path d="M 38.27 128.137298 
L 82.68127 127.967849 
L 120.748074 127.895953 
L 127.092541 127.613702 
L 130.264775 123.287439 
L 133.437008 122.045184 
L 136.609242 121.392477 
L 139.781475 109.812243 
L 142.953709 100.312706 
L 146.125943 94.25104 
L 152.47041 84.395814 
L 155.642643 84.251746 
L 158.814877 86.362287 
L 161.987111 87.051397 
L 165.159344 86.553047 
L 168.331578 86.439531 
L 171.503811 87.207116 
L 174.676045 88.384049 
L 177.848279 89.419278 
L 184.192746 91.150243 
L 187.364979 92.089363 
L 193.709447 92.656651 
L 196.88168 92.034105 
L 200.053914 90.603043 
L 203.226147 89.805002 
L 206.398381 89.957191 
L 209.570615 90.996236 
L 212.742848 92.515609 
L 215.915082 94.329485 
L 219.087316 96.418129 
L 222.259549 98.258195 
L 225.431783 99.654442 
L 231.77625 102.005743 
L 238.120717 104.086286 
L 244.465184 105.7578 
L 247.637418 106.461799 
L 250.809652 106.991671 
L 260.326352 108.147264 
L 266.67082 109.163727 
L 276.18752 111.005478 
L 288.876455 113.432561 
L 298.393156 115.019956 
L 307.909856 116.46765 
L 320.598791 118.090088 
L 330.115492 119.134699 
L 339.632193 119.946071 
L 352.321127 120.760308 
L 365.010061 121.315587 
L 409.421332 122.926443 
L 437.971434 123.531822 
L 485.554938 124.397993 
L 491.899406 124.487261 
L 491.899406 124.487261 
" clip-path="url(#p54721abe36)" style="fill: none; stroke: #999999; stroke-opacity: 0.33; stroke-width: 1.5; stroke-linecap: square"/>
   </g>
   <g id="line2d_22">
    <path d="M 38.27 128.137042 
L 82.68127 127.963485 
L 133.437008 127.823995 
L 146.125943 127.658442 
L 158.814877 127.270139 
L 181.020512 126.276198 
L 184.192746 125.499919 
L 187.364979 119.163518 
L 190.537213 114.648771 
L 193.709447 108.457599 
L 196.88168 86.467597 
L 200.053914 75.593338 
L 203.226147 71.41561 
L 206.398381 70.998019 
L 209.570615 72.55034 
L 212.742848 76.294237 
L 215.915082 81.182373 
L 219.087316 86.726777 
L 222.259549 91.729876 
L 225.431783 96.110884 
L 228.604016 99.869344 
L 231.77625 102.927263 
L 234.948484 105.361702 
L 238.120717 107.408003 
L 241.292951 109.174031 
L 244.465184 110.679583 
L 247.637418 111.986875 
L 253.981885 114.200304 
L 260.326352 116.029428 
L 263.498586 116.695774 
L 269.843053 117.666498 
L 288.876455 120.378619 
L 295.220922 121.004294 
L 304.737623 121.598301 
L 307.909856 121.54335 
L 314.254324 119.070344 
L 317.426557 118.576337 
L 333.287725 117.640503 
L 339.632193 117.627611 
L 345.97666 117.893203 
L 358.665594 118.719335 
L 403.076865 121.812887 
L 409.421332 122.061756 
L 422.110266 122.274609 
L 431.626967 122.924209 
L 437.971434 123.282502 
L 472.866004 124.185974 
L 491.899406 124.101071 
L 491.899406 124.101071 
" clip-path="url(#p54721abe36)" style="fill: none; stroke: #999999; stroke-opacity: 0.33; stroke-width: 1.5; stroke-linecap: square"/>
   </g>
   <g id="line2d_23">
    <path d="M 38.27 128.137298 
L 82.68127 127.967849 
L 130.264775 127.850178 
L 133.437008 123.98765 
L 136.609242 120.923306 
L 139.781475 119.750912 
L 142.953709 109.321486 
L 146.125943 95.487026 
L 149.298176 88.158337 
L 152.47041 85.751396 
L 155.642643 83.675802 
L 158.814877 80.957625 
L 161.987111 77.595828 
L 165.159344 71.313935 
L 168.331578 67.295991 
L 171.503811 65.609763 
L 174.676045 66.691149 
L 177.848279 69.252859 
L 181.020512 73.03087 
L 184.192746 76.322891 
L 187.364979 79.027202 
L 190.537213 80.600619 
L 193.709447 81.369868 
L 196.88168 81.702619 
L 200.053914 81.458069 
L 203.226147 80.976304 
L 206.398381 81.094162 
L 209.570615 81.621558 
L 212.742848 82.317146 
L 231.77625 85.631042 
L 234.948484 86.556879 
L 238.120717 87.941948 
L 241.292951 89.721248 
L 253.981885 97.615056 
L 260.326352 100.948824 
L 263.498586 102.36329 
L 269.843053 104.741162 
L 276.18752 106.756529 
L 282.531988 108.525653 
L 288.876455 109.973633 
L 295.220922 111.203935 
L 304.737623 112.757054 
L 314.254324 114.060911 
L 330.115492 115.929948 
L 349.148893 117.863389 
L 365.010061 119.313898 
L 384.043463 120.700649 
L 399.904631 121.583502 
L 418.938033 122.383688 
L 437.971434 122.982751 
L 469.69377 123.734892 
L 491.899406 124.123913 
L 491.899406 124.123913 
" clip-path="url(#p54721abe36)" style="fill: none; stroke: #999999; stroke-opacity: 0.33; stroke-width: 1.5; stroke-linecap: square"/>
   </g>
   <g id="line2d_24">
    <path d="M 38.27 128.137245 
L 82.68127 127.966953 
L 133.437008 127.826284 
L 146.125943 127.664214 
L 158.814877 127.278708 
L 181.020512 126.490624 
L 196.88168 126.013471 
L 209.570615 124.687258 
L 212.742848 124.078627 
L 215.915082 123.104119 
L 219.087316 121.985974 
L 222.259549 121.08348 
L 225.431783 120.378992 
L 228.604016 119.869013 
L 234.948484 119.202328 
L 238.120717 118.954851 
L 241.292951 118.899406 
L 247.637418 119.409237 
L 253.981885 119.891822 
L 263.498586 120.143315 
L 266.67082 120.142267 
L 276.18752 119.753743 
L 282.531988 120.003429 
L 292.048688 120.479549 
L 295.220922 120.559249 
L 298.393156 120.518394 
L 301.565389 119.540671 
L 304.737623 118.087867 
L 314.254324 115.656837 
L 317.426557 114.974098 
L 320.598791 114.604053 
L 323.771024 114.490213 
L 330.115492 114.636174 
L 339.632193 115.187293 
L 422.110266 121.394778 
L 434.799201 122.165275 
L 447.488135 122.695491 
L 479.210471 123.528177 
L 491.899406 123.742672 
L 491.899406 123.742672 
" clip-path="url(#p54721abe36)" style="fill: none; stroke: #999999; stroke-opacity: 0.33; stroke-width: 1.5; stroke-linecap: square"/>
   </g>
   <g id="line2d_25">
    <path d="M 38.27 128.137245 
L 82.68127 127.966953 
L 133.437008 127.830422 
L 146.125943 127.665923 
L 155.642643 127.392902 
L 165.159344 126.884723 
L 174.676045 126.145479 
L 181.020512 125.244401 
L 187.364979 124.057939 
L 190.537213 122.700498 
L 193.709447 121.761997 
L 196.88168 119.428695 
L 200.053914 116.460692 
L 203.226147 112.662625 
L 206.398381 106.202119 
L 209.570615 99.103397 
L 212.742848 94.408951 
L 215.915082 92.165468 
L 219.087316 91.327455 
L 222.259549 91.721321 
L 225.431783 92.841406 
L 234.948484 96.887962 
L 241.292951 99.064942 
L 257.154119 103.979549 
L 260.326352 104.765327 
L 266.67082 105.827139 
L 273.015287 106.751287 
L 276.18752 107.105542 
L 279.359754 107.303315 
L 282.531988 107.257103 
L 288.876455 106.618962 
L 292.048688 106.326442 
L 295.220922 106.203682 
L 298.393156 106.253189 
L 304.737623 106.719105 
L 314.254324 107.883259 
L 326.943258 109.689011 
L 355.493361 113.799964 
L 371.354529 115.820813 
L 380.871229 116.819577 
L 393.560164 117.931104 
L 431.626967 120.961308 
L 444.315902 121.836431 
L 457.004836 122.505176 
L 476.038238 123.238605 
L 491.899406 123.702212 
L 491.899406 123.702212 
" clip-path="url(#p54721abe36)" style="fill: none; stroke: #999999; stroke-opacity: 0.33; stroke-width: 1.5; stroke-linecap: square"/>
   </g>
   <g id="line2d_26">
    <path d="M 38.27 128.137298 
L 85.853504 127.954573 
L 117.57584 127.844483 
L 130.264775 127.624349 
L 146.125943 127.200686 
L 149.298176 126.98079 
L 158.814877 125.996414 
L 161.987111 125.446808 
L 165.159344 125.053051 
L 168.331578 124.523781 
L 171.503811 123.741967 
L 181.020512 120.203976 
L 184.192746 119.327781 
L 187.364979 118.638642 
L 190.537213 117.306444 
L 196.88168 114.136597 
L 200.053914 111.526559 
L 203.226147 105.248746 
L 206.398381 95.418599 
L 209.570615 86.442139 
L 212.742848 80.323964 
L 215.915082 77.037179 
L 219.087316 74.694651 
L 222.259549 73.384812 
L 225.431783 73.074122 
L 228.604016 73.68761 
L 234.948484 75.874923 
L 238.120717 76.65243 
L 253.981885 79.896636 
L 257.154119 80.951975 
L 260.326352 82.462364 
L 263.498586 84.576244 
L 266.67082 87.117743 
L 273.015287 92.424637 
L 276.18752 94.860144 
L 279.359754 97.068448 
L 282.531988 98.98809 
L 285.704221 100.767091 
L 288.876455 102.122702 
L 292.048688 103.045637 
L 311.08209 107.80956 
L 314.254324 108.363073 
L 317.426557 108.460043 
L 320.598791 108.152162 
L 323.771024 108.325542 
L 326.943258 108.67808 
L 339.632193 109.682698 
L 352.321127 110.985694 
L 361.837828 112.083967 
L 368.182295 112.775344 
L 374.526762 113.775984 
L 393.560164 117.059951 
L 403.076865 118.293399 
L 412.593565 119.335923 
L 425.2825 120.433084 
L 437.971434 121.302232 
L 453.832602 122.175819 
L 469.69377 122.837184 
L 491.899406 123.5113 
L 491.899406 123.5113 
" clip-path="url(#p54721abe36)" style="fill: none; stroke: #999999; stroke-opacity: 0.33; stroke-width: 1.5; stroke-linecap: square"/>
   </g>
   <g id="line2d_27">
    <path d="M 38.27 128.136468 
L 82.68127 127.95371 
L 133.437008 127.805863 
L 146.125943 127.637366 
L 158.814877 127.24447 
L 177.848279 126.564666 
L 196.88168 126.083606 
L 200.053914 125.687621 
L 203.226147 125.478337 
L 206.398381 125.056385 
L 209.570615 124.388415 
L 212.742848 123.398514 
L 215.915082 122.071164 
L 219.087316 120.570042 
L 222.259549 119.239428 
L 228.604016 117.50385 
L 231.77625 116.104477 
L 234.948484 113.956994 
L 238.120717 113.063194 
L 244.465184 113.198813 
L 247.637418 112.688192 
L 250.809652 111.829916 
L 253.981885 111.266359 
L 257.154119 110.820535 
L 260.326352 110.063787 
L 263.498586 109.424547 
L 266.67082 109.32561 
L 282.531988 110.70487 
L 285.704221 110.559487 
L 288.876455 109.98451 
L 295.220922 108.231474 
L 298.393156 107.627461 
L 301.565389 107.304823 
L 304.737623 107.240109 
L 307.909856 107.357296 
L 314.254324 107.931 
L 330.115492 109.828775 
L 380.871229 116.1537 
L 387.215697 116.696154 
L 390.38793 116.659435 
L 393.560164 116.813965 
L 396.732397 116.720314 
L 399.904631 116.167016 
L 403.076865 115.40868 
L 406.249098 114.852751 
L 409.421332 114.510149 
L 412.593565 114.436556 
L 418.938033 114.666127 
L 422.110266 114.985303 
L 450.660369 119.102712 
L 460.17707 120.090838 
L 469.69377 120.854345 
L 482.382705 121.618659 
L 491.899406 122.08553 
L 491.899406 122.08553 
" clip-path="url(#p54721abe36)" style="fill: none; stroke: #999999; stroke-opacity: 0.33; stroke-width: 1.5; stroke-linecap: square"/>
   </g>
   <g id="line2d_28">
    <path d="M 38.27 128.136468 
L 82.68127 127.952404 
L 133.437008 127.797175 
L 146.125943 127.62817 
L 158.814877 127.23681 
L 184.192746 126.180502 
L 190.537213 125.330397 
L 193.709447 124.603496 
L 196.88168 123.519748 
L 200.053914 121.651237 
L 203.226147 118.538616 
L 206.398381 114.541472 
L 212.742848 103.034143 
L 215.915082 99.781241 
L 219.087316 97.857436 
L 222.259549 95.787667 
L 225.431783 93.511371 
L 228.604016 91.868485 
L 231.77625 90.903726 
L 234.948484 90.50607 
L 238.120717 90.369455 
L 241.292951 90.441658 
L 244.465184 90.862175 
L 250.809652 92.226895 
L 253.981885 92.737304 
L 257.154119 93.011982 
L 260.326352 93.130359 
L 263.498586 93.120452 
L 266.67082 92.9958 
L 269.843053 92.713881 
L 282.531988 90.84242 
L 285.704221 90.733897 
L 288.876455 90.819601 
L 295.220922 91.427672 
L 301.565389 92.364704 
L 307.909856 93.719024 
L 317.426557 96.115806 
L 349.148893 104.065677 
L 358.665594 106.344729 
L 368.182295 108.365683 
L 377.698996 110.262363 
L 387.215697 111.83752 
L 396.732397 113.164426 
L 409.421332 114.751444 
L 425.2825 116.443221 
L 437.971434 117.470661 
L 491.899406 121.295532 
L 491.899406 121.295532 
" clip-path="url(#p54721abe36)" style="fill: none; stroke: #999999; stroke-opacity: 0.33; stroke-width: 1.5; stroke-linecap: square"/>
   </g>
   <g id="line2d_29">
    <path d="M 38.27 128.136468 
L 82.68127 127.95371 
L 133.437008 127.805863 
L 146.125943 127.637366 
L 158.814877 127.24447 
L 177.848279 126.564666 
L 193.709447 126.330424 
L 209.570615 126.095428 
L 212.742848 125.699431 
L 219.087316 125.242792 
L 222.259549 124.765589 
L 225.431783 123.749264 
L 228.604016 122.202589 
L 234.948484 119.575637 
L 238.120717 118.564562 
L 244.465184 117.006734 
L 247.637418 116.439293 
L 250.809652 116.049422 
L 253.981885 115.212219 
L 257.154119 114.043674 
L 260.326352 113.510173 
L 263.498586 113.525349 
L 266.67082 113.658763 
L 269.843053 113.545687 
L 279.359754 112.396306 
L 285.704221 111.730367 
L 288.876455 111.615982 
L 292.048688 111.75732 
L 298.393156 112.511091 
L 304.737623 113.380695 
L 307.909856 113.524055 
L 311.08209 113.303435 
L 323.771024 111.407228 
L 326.943258 111.156591 
L 330.115492 111.029916 
L 336.459959 111.132139 
L 345.97666 111.79119 
L 361.837828 113.138867 
L 380.871229 115.016187 
L 396.732397 116.584668 
L 444.315902 120.585437 
L 457.004836 121.45754 
L 472.866004 122.294095 
L 491.899406 123.03795 
L 491.899406 123.03795 
" clip-path="url(#p54721abe36)" style="fill: none; stroke: #999999; stroke-opacity: 0.33; stroke-width: 1.5; stroke-linecap: square"/>
   </g>
   <g id="line2d_30">
    <path d="M 38.27 128.137245 
L 82.68127 127.966953 
L 98.542439 127.856861 
L 104.886906 127.671377 
L 114.403607 127.273217 
L 130.264775 125.976864 
L 136.609242 125.2525 
L 139.781475 124.07738 
L 146.125943 123.048394 
L 149.298176 122.073064 
L 155.642643 118.179219 
L 158.814877 116.711258 
L 165.159344 114.148179 
L 168.331578 113.267664 
L 171.503811 113.163225 
L 193.709447 115.559875 
L 200.053914 115.81009 
L 203.226147 114.879171 
L 206.398381 114.937159 
L 209.570615 114.313839 
L 215.915082 108.954309 
L 219.087316 107.110127 
L 222.259549 105.935359 
L 228.604016 105.22365 
L 231.77625 105.597729 
L 238.120717 107.086876 
L 244.465184 108.288717 
L 250.809652 109.224516 
L 257.154119 109.91348 
L 269.843053 110.971754 
L 276.18752 111.083634 
L 282.531988 110.801294 
L 288.876455 110.305168 
L 298.393156 109.436182 
L 301.565389 109.320119 
L 307.909856 109.47151 
L 314.254324 109.932819 
L 326.943258 111.261671 
L 339.632193 112.737132 
L 371.354529 116.660653 
L 380.871229 117.562915 
L 409.421332 119.858288 
L 434.799201 121.702182 
L 450.660369 122.561818 
L 466.521537 123.183817 
L 488.727172 123.810116 
L 491.899406 123.877663 
L 491.899406 123.877663 
" clip-path="url(#p54721abe36)" style="fill: none; stroke: #999999; stroke-opacity: 0.33; stroke-width: 1.5; stroke-linecap: square"/>
   </g>
   <g id="line2d_31">
    <path d="M 38.27 128.137245 
L 47.786701 128.046021 
L 57.303402 127.678091 
L 63.647869 127.138521 
L 66.820102 126.664582 
L 73.16457 125.216882 
L 76.336803 124.429682 
L 101.714672 117.087133 
L 108.059139 114.834162 
L 117.57584 112.5116 
L 120.748074 112.117557 
L 123.920307 112.003829 
L 133.437008 112.031929 
L 139.781475 111.253044 
L 142.953709 110.760936 
L 146.125943 109.967212 
L 149.298176 108.89909 
L 152.47041 107.57432 
L 158.814877 104.618524 
L 161.987111 103.197817 
L 165.159344 101.525269 
L 168.331578 99.634133 
L 171.503811 97.193744 
L 174.676045 95.161887 
L 177.848279 93.949589 
L 181.020512 93.181138 
L 184.192746 92.561083 
L 187.364979 92.131507 
L 190.537213 91.938653 
L 196.88168 92.077018 
L 200.053914 91.934481 
L 209.570615 91.118524 
L 215.915082 91.006768 
L 219.087316 91.011464 
L 222.259549 91.200131 
L 225.431783 91.763153 
L 238.120717 94.910147 
L 244.465184 96.462203 
L 253.981885 98.272379 
L 266.67082 100.520982 
L 285.704221 104.44746 
L 314.254324 109.591206 
L 326.943258 111.543902 
L 342.804426 113.715375 
L 358.665594 115.71469 
L 368.182295 116.709001 
L 387.215697 118.355795 
L 412.593565 120.391845 
L 428.454733 121.469608 
L 441.143668 122.099279 
L 460.17707 122.778987 
L 482.382705 123.371372 
L 491.899406 123.561263 
L 491.899406 123.561263 
" clip-path="url(#p54721abe36)" style="fill: none; stroke: #999999; stroke-opacity: 0.33; stroke-width: 1.5; stroke-linecap: square"/>
   </g>
   <g id="line2d_32">
    <path d="M 38.27 128.137245 
L 82.68127 127.966953 
L 133.437008 127.830422 
L 146.125943 127.665923 
L 158.814877 127.279212 
L 177.848279 126.60171 
L 193.709447 126.201667 
L 196.88168 125.952217 
L 203.226147 124.966953 
L 206.398381 124.294276 
L 209.570615 123.014823 
L 212.742848 120.622305 
L 219.087316 114.861422 
L 225.431783 109.759007 
L 228.604016 105.160089 
L 231.77625 101.495417 
L 234.948484 99.79475 
L 238.120717 99.229168 
L 244.465184 98.7092 
L 247.637418 99.086648 
L 253.981885 100.701568 
L 263.498586 102.389003 
L 269.843053 103.771673 
L 282.531988 107.182304 
L 292.048688 108.762782 
L 295.220922 109.501118 
L 314.254324 114.582268 
L 320.598791 116.028919 
L 326.943258 117.219875 
L 336.459959 118.718913 
L 345.97666 119.941131 
L 355.493361 120.954348 
L 368.182295 122.021062 
L 380.871229 122.883729 
L 396.732397 123.698741 
L 415.765799 124.40136 
L 434.799201 124.865334 
L 469.69377 125.383252 
L 491.899406 125.609007 
L 491.899406 125.609007 
" clip-path="url(#p54721abe36)" style="fill: none; stroke: #999999; stroke-opacity: 0.33; stroke-width: 1.5; stroke-linecap: square"/>
   </g>
   <g id="line2d_33">
    <path d="M 38.27 128.135997 
L 82.68127 127.945677 
L 133.437008 127.790941 
L 146.125943 127.620061 
L 155.642643 127.30531 
L 161.987111 126.941618 
L 171.503811 126.108891 
L 177.848279 125.09442 
L 181.020512 124.338706 
L 184.192746 123.242358 
L 187.364979 121.638358 
L 190.537213 119.669862 
L 193.709447 116.930955 
L 196.88168 112.322059 
L 200.053914 106.561483 
L 209.570615 92.294111 
L 212.742848 89.746272 
L 215.915082 89.040073 
L 222.259549 88.179952 
L 225.431783 88.249956 
L 228.604016 88.481865 
L 244.465184 91.074843 
L 247.637418 91.762013 
L 250.809652 92.316373 
L 257.154119 92.975 
L 273.015287 94.33768 
L 279.359754 94.546457 
L 285.704221 95.066364 
L 292.048688 95.971664 
L 301.565389 97.822921 
L 307.909856 99.243191 
L 323.771024 102.912095 
L 330.115492 104.150475 
L 336.459959 105.229086 
L 349.148893 107.062075 
L 355.493361 107.717819 
L 361.837828 108.179953 
L 368.182295 108.668417 
L 380.871229 109.455351 
L 387.215697 109.722328 
L 390.38793 109.863459 
L 396.732397 109.781845 
L 403.076865 109.696591 
L 409.421332 109.723539 
L 422.110266 109.947913 
L 428.454733 110.031428 
L 437.971434 109.763099 
L 441.143668 109.654682 
L 444.315902 109.401002 
L 457.004836 107.745628 
L 460.17707 107.250421 
L 463.349303 106.618006 
L 466.521537 106.255336 
L 472.866004 105.944582 
L 479.210471 106.031429 
L 488.727172 106.365544 
L 491.899406 106.50393 
L 491.899406 106.50393 
" clip-path="url(#p54721abe36)" style="fill: none; stroke: #999999; stroke-opacity: 0.33; stroke-width: 1.5; stroke-linecap: square"/>
   </g>
   <g id="line2d_34">
    <path d="M 38.27 128.137298 
L 95.370205 127.878878 
L 130.264775 127.75456 
L 139.781475 127.586383 
L 146.125943 127.320674 
L 152.47041 126.932595 
L 158.814877 126.322089 
L 165.159344 125.235789 
L 168.331578 124.676002 
L 177.848279 122.566552 
L 184.192746 120.969317 
L 193.709447 118.194598 
L 200.053914 117.159029 
L 203.226147 116.87222 
L 206.398381 117.096297 
L 212.742848 118.061396 
L 219.087316 119.163062 
L 234.948484 120.96122 
L 247.637418 122.170342 
L 269.843053 124.008133 
L 282.531988 124.728177 
L 292.048688 125.019852 
L 301.565389 125.061544 
L 317.426557 124.822727 
L 330.115492 124.504905 
L 339.632193 123.861093 
L 345.97666 123.790414 
L 365.010061 123.964227 
L 447.488135 125.002985 
L 491.899406 125.310549 
L 491.899406 125.310549 
" clip-path="url(#p54721abe36)" style="fill: none; stroke: #999999; stroke-opacity: 0.33; stroke-width: 1.5; stroke-linecap: square"/>
   </g>
   <g id="line2d_35">
    <path d="M 38.27 128.137298 
L 82.68127 127.967849 
L 133.437008 127.832084 
L 146.125943 127.667859 
L 158.814877 127.281553 
L 177.848279 126.604231 
L 184.192746 126.48167 
L 187.364979 126.190522 
L 190.537213 119.48612 
L 193.709447 118.95591 
L 196.88168 115.902149 
L 200.053914 97.237436 
L 203.226147 88.23697 
L 206.398381 83.899049 
L 209.570615 82.581228 
L 212.742848 83.012261 
L 215.915082 85.709056 
L 222.259549 93.242613 
L 225.431783 96.583521 
L 228.604016 99.45307 
L 231.77625 101.870678 
L 234.948484 103.752154 
L 238.120717 105.243204 
L 241.292951 106.337356 
L 244.465184 107.037073 
L 250.809652 107.84192 
L 257.154119 109.141043 
L 260.326352 109.780294 
L 263.498586 110.280833 
L 266.67082 110.296647 
L 269.843053 108.35099 
L 273.015287 104.99285 
L 276.18752 102.219683 
L 279.359754 100.417924 
L 282.531988 99.433845 
L 285.704221 99.012435 
L 288.876455 98.971597 
L 292.048688 99.191951 
L 298.393156 100.050057 
L 307.909856 101.71061 
L 317.426557 103.533624 
L 352.321127 111.111311 
L 361.837828 112.738409 
L 377.698996 115.093842 
L 387.215697 116.341258 
L 396.732397 117.352968 
L 412.593565 118.769404 
L 434.799201 120.402867 
L 460.17707 122.094888 
L 472.866004 122.700641 
L 491.899406 123.339306 
L 491.899406 123.339306 
" clip-path="url(#p54721abe36)" style="fill: none; stroke: #999999; stroke-opacity: 0.33; stroke-width: 1.5; stroke-linecap: square"/>
   </g>
   <g id="line2d_36">
    <path d="M 38.27 128.137042 
L 66.820102 127.879585 
L 79.509037 126.960949 
L 82.68127 126.439262 
L 89.025738 124.774406 
L 92.197971 123.862274 
L 95.370205 123.150433 
L 98.542439 122.673115 
L 101.714672 122.379775 
L 108.059139 122.155036 
L 111.231373 122.165751 
L 114.403607 122.292974 
L 120.748074 122.897232 
L 133.437008 124.336235 
L 139.781475 124.869331 
L 149.298176 125.405692 
L 158.814877 125.666541 
L 177.848279 125.75522 
L 184.192746 125.713574 
L 187.364979 125.159341 
L 190.537213 124.814325 
L 193.709447 124.124597 
L 196.88168 123.23346 
L 200.053914 121.331578 
L 206.398381 114.021629 
L 209.570615 111.138463 
L 212.742848 108.861102 
L 215.915082 107.214317 
L 219.087316 106.195779 
L 222.259549 105.826124 
L 225.431783 105.89371 
L 228.604016 105.709525 
L 231.77625 105.397961 
L 238.120717 105.923348 
L 241.292951 106.194118 
L 244.465184 106.32565 
L 247.637418 106.320588 
L 250.809652 106.167061 
L 257.154119 105.583299 
L 260.326352 105.489676 
L 263.498586 105.552413 
L 266.67082 105.788164 
L 269.843053 106.263183 
L 279.359754 108.216516 
L 282.531988 108.444155 
L 292.048688 108.560247 
L 298.393156 108.670423 
L 301.565389 108.498111 
L 311.08209 107.700719 
L 314.254324 107.649572 
L 320.598791 107.929532 
L 326.943258 108.489933 
L 336.459959 109.579985 
L 352.321127 111.645246 
L 371.354529 114.13704 
L 390.38793 116.41701 
L 399.904631 117.303158 
L 441.143668 120.607302 
L 457.004836 121.742378 
L 469.69377 122.424998 
L 485.554938 123.051777 
L 491.899406 123.260697 
L 491.899406 123.260697 
" clip-path="url(#p54721abe36)" style="fill: none; stroke: #999999; stroke-opacity: 0.33; stroke-width: 1.5; stroke-linecap: square"/>
   </g>
   <g id="line2d_37">
    <path d="M 38.27 128.136468 
L 82.68127 127.95371 
L 133.437008 127.805863 
L 146.125943 127.637366 
L 158.814877 127.24447 
L 177.848279 126.564666 
L 184.192746 126.360187 
L 187.364979 126.172888 
L 193.709447 125.205876 
L 196.88168 124.366977 
L 200.053914 122.489129 
L 203.226147 120.212139 
L 206.398381 116.068848 
L 209.570615 110.17067 
L 212.742848 103.128126 
L 215.915082 98.352279 
L 219.087316 96.214441 
L 222.259549 95.824436 
L 231.77625 96.268612 
L 234.948484 96.374373 
L 238.120717 96.646184 
L 244.465184 97.621756 
L 247.637418 98.297912 
L 257.154119 100.813717 
L 266.67082 102.601445 
L 276.18752 104.976479 
L 279.359754 105.612094 
L 282.531988 106.082677 
L 285.704221 106.373829 
L 292.048688 106.553286 
L 298.393156 106.755093 
L 304.737623 107.300302 
L 330.115492 110.378381 
L 365.010061 114.650106 
L 380.871229 116.349852 
L 396.732397 117.706065 
L 431.626967 120.520699 
L 444.315902 121.405938 
L 457.004836 122.085193 
L 472.866004 122.715213 
L 491.899406 123.307882 
L 491.899406 123.307882 
" clip-path="url(#p54721abe36)" style="fill: none; stroke: #999999; stroke-opacity: 0.33; stroke-width: 1.5; stroke-linecap: square"/>
   </g>
   <g id="line2d_38">
    <path d="M 38.27 128.136747 
L 82.68127 127.958468 
L 133.437008 127.814692 
L 146.125943 127.647622 
L 149.298176 127.510874 
L 152.47041 127.057809 
L 158.814877 126.637739 
L 161.987111 126.005707 
L 165.159344 125.181884 
L 168.331578 124.08326 
L 171.503811 122.215052 
L 174.676045 120.750021 
L 177.848279 119.123528 
L 181.020512 116.76785 
L 184.192746 114.232574 
L 187.364979 112.515626 
L 190.537213 111.563408 
L 193.709447 110.880195 
L 196.88168 109.369514 
L 200.053914 108.456068 
L 203.226147 107.366421 
L 209.570615 103.423116 
L 212.742848 101.031823 
L 215.915082 96.373138 
L 219.087316 91.996874 
L 222.259549 91.261994 
L 225.431783 91.50815 
L 228.604016 90.796682 
L 231.77625 89.907604 
L 234.948484 89.70285 
L 238.120717 90.241834 
L 241.292951 90.904235 
L 244.465184 91.376495 
L 257.154119 92.650455 
L 260.326352 93.151073 
L 263.498586 93.930377 
L 266.67082 95.018479 
L 269.843053 96.396458 
L 276.18752 99.58561 
L 279.359754 101.200324 
L 282.531988 102.625194 
L 285.704221 103.87392 
L 288.876455 104.996329 
L 295.220922 106.869067 
L 301.565389 108.505219 
L 307.909856 109.825558 
L 317.426557 111.48967 
L 326.943258 112.915394 
L 336.459959 114.148945 
L 355.493361 116.312537 
L 380.871229 118.835716 
L 393.560164 119.863428 
L 409.421332 120.924562 
L 412.593565 121.091963 
L 415.765799 121.138756 
L 422.110266 121.116645 
L 453.832602 122.476834 
L 469.69377 123.026009 
L 482.382705 123.352425 
L 488.727172 123.295436 
L 491.899406 123.132465 
L 491.899406 123.132465 
" clip-path="url(#p54721abe36)" style="fill: none; stroke: #999999; stroke-opacity: 0.33; stroke-width: 1.5; stroke-linecap: square"/>
   </g>
   <g id="line2d_39">
    <path d="M 38.27 128.135997 
L 82.68127 127.945677 
L 133.437008 127.789127 
L 146.125943 127.613433 
L 158.814877 127.198173 
L 177.848279 126.307731 
L 184.192746 125.798335 
L 187.364979 125.353047 
L 190.537213 124.473467 
L 193.709447 121.821363 
L 200.053914 111.972678 
L 209.570615 94.612981 
L 212.742848 89.389542 
L 215.915082 85.029576 
L 219.087316 81.656701 
L 222.259549 79.248811 
L 225.431783 77.861903 
L 228.604016 77.302041 
L 231.77625 77.19594 
L 238.120717 77.592934 
L 244.465184 78.761248 
L 250.809652 80.228019 
L 253.981885 81.125106 
L 257.154119 82.174631 
L 260.326352 83.503911 
L 263.498586 85.046872 
L 266.67082 86.799606 
L 273.015287 90.796332 
L 282.531988 96.913476 
L 288.876455 100.707587 
L 292.048688 102.344836 
L 295.220922 103.728461 
L 298.393156 104.971902 
L 304.737623 107.087083 
L 307.909856 108.028506 
L 314.254324 109.552894 
L 320.598791 110.722059 
L 330.115492 112.073001 
L 342.804426 113.547158 
L 361.837828 115.432826 
L 374.526762 116.563448 
L 396.732397 118.322632 
L 415.765799 119.605279 
L 434.799201 120.638291 
L 457.004836 121.630132 
L 482.382705 122.507535 
L 491.899406 122.769333 
L 491.899406 122.769333 
" clip-path="url(#p54721abe36)" style="fill: none; stroke: #999999; stroke-opacity: 0.33; stroke-width: 1.5; stroke-linecap: square"/>
   </g>
   <g id="line2d_40">
    <path d="M 38.27 128.137245 
L 82.68127 127.966953 
L 127.092541 127.840255 
L 139.781475 127.66304 
L 149.298176 127.290113 
L 161.987111 126.56362 
L 165.159344 126.23092 
L 168.331578 125.6975 
L 171.503811 124.983495 
L 174.676045 123.762774 
L 177.848279 122.154283 
L 181.020512 118.510221 
L 184.192746 112.566951 
L 187.364979 105.173436 
L 190.537213 98.516545 
L 193.709447 93.85406 
L 196.88168 90.583612 
L 200.053914 88.578912 
L 203.226147 87.532981 
L 206.398381 87.238659 
L 209.570615 87.150681 
L 212.742848 86.942969 
L 219.087316 85.987847 
L 225.431783 85.12312 
L 228.604016 85.090135 
L 231.77625 85.405728 
L 238.120717 86.441842 
L 241.292951 86.965804 
L 244.465184 87.273775 
L 253.981885 87.563427 
L 260.326352 88.224063 
L 269.843053 89.209197 
L 276.18752 89.794369 
L 279.359754 90.185532 
L 285.704221 91.293569 
L 292.048688 92.66987 
L 298.393156 94.42094 
L 323.771024 102.100596 
L 339.632193 106.369416 
L 349.148893 108.582249 
L 358.665594 110.635086 
L 368.182295 112.303443 
L 380.871229 114.193586 
L 393.560164 115.839941 
L 403.076865 116.828875 
L 422.110266 118.486136 
L 447.488135 120.509555 
L 460.17707 121.359623 
L 472.866004 121.997849 
L 491.899406 122.686496 
L 491.899406 122.686496 
" clip-path="url(#p54721abe36)" style="fill: none; stroke: #999999; stroke-opacity: 0.33; stroke-width: 1.5; stroke-linecap: square"/>
   </g>
   <g id="line2d_41">
    <path d="M 38.27 128.137245 
L 82.68127 127.966953 
L 133.437008 127.830422 
L 146.125943 127.665923 
L 158.814877 127.279212 
L 177.848279 126.60171 
L 193.709447 126.198239 
L 196.88168 125.513342 
L 203.226147 124.703825 
L 206.398381 123.90451 
L 209.570615 121.857313 
L 212.742848 119.011378 
L 215.915082 116.977078 
L 219.087316 115.661268 
L 222.259549 114.869985 
L 225.431783 114.543174 
L 228.604016 114.48309 
L 231.77625 114.815138 
L 241.292951 116.958583 
L 244.465184 117.086698 
L 247.637418 116.523896 
L 250.809652 116.382475 
L 257.154119 116.951307 
L 260.326352 117.046713 
L 263.498586 116.879413 
L 273.015287 115.911542 
L 276.18752 115.582359 
L 279.359754 115.436325 
L 282.531988 115.577295 
L 288.876455 116.38484 
L 298.393156 117.587952 
L 304.737623 118.277241 
L 307.909856 118.43864 
L 311.08209 118.315202 
L 326.943258 116.731013 
L 333.287725 116.610119 
L 339.632193 116.796323 
L 352.321127 117.511113 
L 368.182295 118.664904 
L 396.732397 120.740194 
L 418.938033 122.075574 
L 431.626967 122.602129 
L 469.69377 123.750135 
L 491.899406 124.229661 
L 491.899406 124.229661 
" clip-path="url(#p54721abe36)" style="fill: none; stroke: #999999; stroke-opacity: 0.33; stroke-width: 1.5; stroke-linecap: square"/>
   </g>
   <g id="line2d_42">
    <path d="M 38.27 128.135997 
L 111.231373 127.575789 
L 117.57584 127.427965 
L 130.264775 126.607463 
L 136.609242 126.014904 
L 149.298176 124.511053 
L 158.814877 123.678024 
L 165.159344 123.310306 
L 171.503811 123.2244 
L 177.848279 123.238714 
L 184.192746 123.007034 
L 190.537213 122.439423 
L 193.709447 121.988634 
L 196.88168 121.047632 
L 200.053914 120.400825 
L 203.226147 119.578738 
L 206.398381 117.099011 
L 212.742848 109.692552 
L 215.915082 104.487233 
L 219.087316 100.057393 
L 222.259549 97.150913 
L 225.431783 95.648584 
L 228.604016 94.927554 
L 231.77625 94.885205 
L 234.948484 95.265984 
L 238.120717 95.908521 
L 247.637418 98.335736 
L 257.154119 100.183954 
L 263.498586 101.072131 
L 269.843053 101.892312 
L 282.531988 103.712578 
L 288.876455 104.424406 
L 295.220922 104.87437 
L 304.737623 105.172964 
L 311.08209 105.444581 
L 317.426557 105.994015 
L 326.943258 107.251858 
L 352.321127 110.87535 
L 371.354529 113.318114 
L 390.38793 115.567619 
L 399.904631 116.518554 
L 412.593565 117.53875 
L 460.17707 121.069669 
L 476.038238 121.938256 
L 491.899406 122.52161 
L 491.899406 122.52161 
" clip-path="url(#p54721abe36)" style="fill: none; stroke: #999999; stroke-opacity: 0.33; stroke-width: 1.5; stroke-linecap: square"/>
   </g>
   <g id="line2d_43">
    <path d="M 38.27 128.137298 
L 82.68127 127.967849 
L 123.920307 127.872083 
L 127.092541 127.422012 
L 133.437008 127.254049 
L 136.609242 126.722506 
L 139.781475 113.539167 
L 146.125943 102.110519 
L 149.298176 93.307057 
L 152.47041 82.873308 
L 155.642643 74.506466 
L 158.814877 69.438107 
L 161.987111 67.04145 
L 165.159344 65.667973 
L 168.331578 65.229986 
L 171.503811 66.015619 
L 174.676045 67.695534 
L 177.848279 69.840708 
L 184.192746 74.548208 
L 187.364979 76.359709 
L 190.537213 77.980163 
L 193.709447 79.416684 
L 200.053914 81.807108 
L 203.226147 82.320734 
L 206.398381 82.534647 
L 209.570615 82.943344 
L 212.742848 83.956571 
L 215.915082 85.530179 
L 219.087316 87.408827 
L 225.431783 91.80959 
L 231.77625 96.191808 
L 234.948484 98.12027 
L 238.120717 99.813325 
L 241.292951 101.314317 
L 244.465184 102.607093 
L 250.809652 104.8634 
L 266.67082 109.902116 
L 273.015287 111.675742 
L 279.359754 113.231395 
L 285.704221 114.527969 
L 292.048688 115.639462 
L 298.393156 116.515726 
L 307.909856 117.561292 
L 317.426557 118.416289 
L 326.943258 119.061923 
L 361.837828 121.013776 
L 393.560164 122.353609 
L 412.593565 122.978754 
L 437.971434 123.584332 
L 469.69377 124.114466 
L 491.899406 124.381717 
L 491.899406 124.381717 
" clip-path="url(#p54721abe36)" style="fill: none; stroke: #999999; stroke-opacity: 0.33; stroke-width: 1.5; stroke-linecap: square"/>
   </g>
   <g id="line2d_44">
    <path d="M 38.27 128.136747 
L 82.68127 127.958468 
L 133.437008 127.814692 
L 146.125943 127.647622 
L 158.814877 127.256974 
L 177.848279 126.577973 
L 193.709447 126.342497 
L 203.226147 126.202936 
L 206.398381 125.953256 
L 209.570615 125.447709 
L 212.742848 124.660413 
L 215.915082 123.585627 
L 219.087316 121.881413 
L 222.259549 118.804238 
L 225.431783 114.0399 
L 228.604016 110.068441 
L 231.77625 107.353784 
L 234.948484 105.946883 
L 238.120717 105.557286 
L 241.292951 105.936348 
L 244.465184 106.825328 
L 250.809652 109.429654 
L 253.981885 110.697677 
L 257.154119 111.698948 
L 260.326352 112.262131 
L 263.498586 112.373535 
L 266.67082 112.232668 
L 269.843053 111.797726 
L 273.015287 108.058409 
L 276.18752 101.970484 
L 279.359754 98.967079 
L 282.531988 97.329228 
L 285.704221 96.459595 
L 288.876455 96.061502 
L 292.048688 95.998845 
L 295.220922 96.188813 
L 301.565389 96.94666 
L 307.909856 98.04888 
L 323.771024 101.112009 
L 330.115492 101.993178 
L 333.287725 102.306829 
L 339.632193 102.348926 
L 342.804426 102.317952 
L 345.97666 102.454271 
L 349.148893 102.769959 
L 352.321127 103.226692 
L 358.665594 104.638181 
L 374.526762 109.136822 
L 380.871229 110.591794 
L 387.215697 111.817701 
L 393.560164 112.832531 
L 399.904631 113.675738 
L 409.421332 114.67676 
L 422.110266 115.750341 
L 434.799201 116.536166 
L 457.004836 117.640889 
L 476.038238 118.642921 
L 491.899406 119.601806 
L 491.899406 119.601806 
" clip-path="url(#p54721abe36)" style="fill: none; stroke: #999999; stroke-opacity: 0.33; stroke-width: 1.5; stroke-linecap: square"/>
   </g>
   <g id="line2d_45">
    <path d="M 38.27 128.137245 
L 82.68127 127.966953 
L 133.437008 127.830422 
L 146.125943 127.665682 
L 158.814877 127.278825 
L 177.848279 126.601015 
L 187.364979 126.359701 
L 190.537213 125.961603 
L 193.709447 125.39563 
L 196.88168 124.012031 
L 200.053914 122.839634 
L 203.226147 120.966199 
L 209.570615 109.641317 
L 212.742848 105.056832 
L 215.915082 102.049237 
L 219.087316 99.254587 
L 222.259549 97.084195 
L 225.431783 97.071063 
L 228.604016 98.256936 
L 231.77625 99.614842 
L 234.948484 100.217771 
L 241.292951 99.94344 
L 244.465184 99.954452 
L 247.637418 100.160215 
L 250.809652 100.482938 
L 253.981885 100.968887 
L 257.154119 101.700298 
L 263.498586 103.411717 
L 266.67082 103.875667 
L 273.015287 104.115338 
L 279.359754 104.240544 
L 282.531988 104.155529 
L 288.876455 103.757571 
L 292.048688 103.684273 
L 295.220922 103.771228 
L 301.565389 104.375978 
L 311.08209 105.671462 
L 320.598791 107.236484 
L 339.632193 110.619218 
L 352.321127 112.596313 
L 368.182295 114.799467 
L 380.871229 116.347885 
L 393.560164 117.515082 
L 437.971434 121.092372 
L 450.660369 121.91429 
L 463.349303 122.531214 
L 485.554938 123.34956 
L 491.899406 123.538272 
L 491.899406 123.538272 
" clip-path="url(#p54721abe36)" style="fill: none; stroke: #999999; stroke-opacity: 0.33; stroke-width: 1.5; stroke-linecap: square"/>
   </g>
   <g id="line2d_46">
    <path d="M 38.27 128.137245 
L 111.231373 127.58484 
L 146.125943 127.06747 
L 165.159344 126.46191 
L 177.848279 126.157904 
L 193.709447 126.050107 
L 212.742848 125.95895 
L 215.915082 125.351204 
L 219.087316 125.003311 
L 225.431783 123.381219 
L 228.604016 121.363446 
L 231.77625 118.055802 
L 234.948484 115.399817 
L 238.120717 113.345075 
L 241.292951 111.960828 
L 244.465184 111.227464 
L 247.637418 110.972777 
L 250.809652 111.028209 
L 253.981885 111.344939 
L 257.154119 111.928148 
L 266.67082 114.191942 
L 273.015287 115.728524 
L 276.18752 116.419236 
L 279.359754 116.945285 
L 285.704221 117.412664 
L 292.048688 117.91536 
L 304.737623 119.153862 
L 311.08209 119.606766 
L 314.254324 119.489701 
L 317.426557 117.627329 
L 320.598791 115.92446 
L 326.943258 113.845394 
L 330.115492 113.179948 
L 333.287725 112.911665 
L 336.459959 112.895411 
L 342.804426 113.169808 
L 352.321127 113.832864 
L 365.010061 114.972283 
L 387.215697 117.142968 
L 399.904631 118.106335 
L 457.004836 122.052274 
L 469.69377 122.653568 
L 488.727172 123.319967 
L 491.899406 123.415714 
L 491.899406 123.415714 
" clip-path="url(#p54721abe36)" style="fill: none; stroke: #999999; stroke-opacity: 0.33; stroke-width: 1.5; stroke-linecap: square"/>
   </g>
   <g id="line2d_47">
    <path d="M 38.27 128.137245 
L 82.68127 127.966953 
L 133.437008 127.830422 
L 146.125943 127.665923 
L 158.814877 127.279212 
L 181.020512 126.492857 
L 200.053914 126.017338 
L 203.226147 125.437324 
L 206.398381 122.959708 
L 209.570615 122.633603 
L 212.742848 121.702842 
L 215.915082 115.087951 
L 219.087316 108.813376 
L 222.259549 105.3636 
L 225.431783 103.933201 
L 228.604016 103.941086 
L 231.77625 104.210819 
L 234.948484 105.476072 
L 247.637418 112.420532 
L 253.981885 115.126772 
L 257.154119 116.303568 
L 260.326352 117.285796 
L 266.67082 118.877215 
L 269.843053 119.468094 
L 276.18752 120.318032 
L 295.220922 122.350304 
L 301.565389 122.835408 
L 307.909856 123.16037 
L 314.254324 123.286696 
L 317.426557 122.800141 
L 320.598791 121.08541 
L 323.771024 119.841635 
L 326.943258 119.401908 
L 330.115492 119.28472 
L 339.632193 119.273538 
L 349.148893 119.090799 
L 355.493361 119.292678 
L 368.182295 120.061645 
L 399.904631 122.049842 
L 406.249098 122.308027 
L 412.593565 122.368208 
L 418.938033 122.413195 
L 425.2825 122.735047 
L 434.799201 123.378999 
L 441.143668 123.578205 
L 453.832602 123.790411 
L 472.866004 124.385503 
L 479.210471 124.39913 
L 491.899406 124.258508 
L 491.899406 124.258508 
" clip-path="url(#p54721abe36)" style="fill: none; stroke: #999999; stroke-opacity: 0.33; stroke-width: 1.5; stroke-linecap: square"/>
   </g>
   <g id="line2d_48">
    <path d="M 38.27 128.137245 
L 85.853504 127.949896 
L 108.059139 127.830282 
L 152.47041 127.379423 
L 171.503811 126.694005 
L 177.848279 126.402527 
L 184.192746 126.216321 
L 190.537213 125.810062 
L 193.709447 121.550649 
L 196.88168 119.130012 
L 200.053914 117.7929 
L 203.226147 104.554891 
L 206.398381 94.505653 
L 209.570615 88.922863 
L 219.087316 84.864576 
L 222.259549 86.491784 
L 225.431783 89.792222 
L 228.604016 92.42029 
L 231.77625 93.124555 
L 234.948484 93.080475 
L 238.120717 93.237249 
L 241.292951 93.79982 
L 250.809652 96.285386 
L 257.154119 98.369185 
L 260.326352 99.176725 
L 269.843053 100.660073 
L 273.015287 101.495019 
L 285.704221 105.355281 
L 295.220922 107.821277 
L 301.565389 109.279896 
L 307.909856 110.539939 
L 317.426557 112.156028 
L 326.943258 113.533928 
L 345.97666 115.968422 
L 368.182295 118.49779 
L 380.871229 119.719629 
L 393.560164 120.73682 
L 406.249098 121.514221 
L 425.2825 122.439684 
L 444.315902 123.130822 
L 472.866004 123.846911 
L 491.899406 124.208948 
L 491.899406 124.208948 
" clip-path="url(#p54721abe36)" style="fill: none; stroke: #999999; stroke-opacity: 0.33; stroke-width: 1.5; stroke-linecap: square"/>
   </g>
   <g id="line2d_49">
    <path d="M 38.27 128.137298 
L 82.68127 127.967849 
L 133.437008 127.832084 
L 146.125943 127.664381 
L 158.814877 127.264859 
L 190.537213 125.856862 
L 193.709447 125.525216 
L 196.88168 124.956106 
L 200.053914 124.092933 
L 203.226147 122.724045 
L 206.398381 114.811202 
L 209.570615 106.011159 
L 212.742848 99.881901 
L 215.915082 95.085878 
L 219.087316 90.623461 
L 222.259549 87.660745 
L 225.431783 86.680965 
L 228.604016 87.001598 
L 231.77625 87.875448 
L 234.948484 89.011122 
L 241.292951 91.568009 
L 244.465184 92.489149 
L 247.637418 92.975854 
L 253.981885 93.257211 
L 260.326352 93.39442 
L 263.498586 93.220261 
L 266.67082 92.597015 
L 269.843053 91.811769 
L 273.015287 91.206121 
L 276.18752 90.930207 
L 279.359754 91.03097 
L 282.531988 91.435517 
L 288.876455 92.808267 
L 304.737623 96.615465 
L 314.254324 98.711644 
L 326.943258 101.193208 
L 342.804426 104.310537 
L 358.665594 107.713213 
L 374.526762 110.807231 
L 384.043463 112.351143 
L 399.904631 114.593971 
L 415.765799 116.5175 
L 425.2825 117.425503 
L 441.143668 118.6221 
L 485.554938 121.686088 
L 491.899406 122.004302 
L 491.899406 122.004302 
" clip-path="url(#p54721abe36)" style="fill: none; stroke: #999999; stroke-opacity: 0.33; stroke-width: 1.5; stroke-linecap: square"/>
   </g>
   <g id="line2d_50">
    <path d="M 38.27 128.136368 
L 82.68127 127.957381 
L 130.264775 127.827265 
L 146.125943 127.637905 
L 158.814877 127.246415 
L 168.331578 126.863541 
L 177.848279 125.678124 
L 181.020512 125.396241 
L 184.192746 124.729067 
L 187.364979 123.362387 
L 190.537213 121.540753 
L 193.709447 119.277814 
L 196.88168 116.563748 
L 200.053914 115.214164 
L 203.226147 114.842915 
L 209.570615 114.645519 
L 222.259549 113.89969 
L 228.604016 113.820148 
L 231.77625 113.963702 
L 238.120717 114.724062 
L 260.326352 117.532367 
L 263.498586 117.744694 
L 269.843053 117.873633 
L 273.015287 118.048931 
L 282.531988 119.033782 
L 285.704221 119.337932 
L 288.876455 119.515952 
L 292.048688 119.259497 
L 301.565389 116.71594 
L 304.737623 115.796919 
L 307.909856 115.096522 
L 311.08209 114.677913 
L 314.254324 114.490137 
L 320.598791 114.499452 
L 330.115492 114.864104 
L 339.632193 115.439712 
L 358.665594 116.872907 
L 374.526762 118.118662 
L 422.110266 121.615048 
L 434.799201 122.356868 
L 450.660369 123.021113 
L 472.866004 123.704024 
L 491.899406 124.10565 
L 491.899406 124.10565 
" clip-path="url(#p54721abe36)" style="fill: none; stroke: #999999; stroke-opacity: 0.33; stroke-width: 1.5; stroke-linecap: square"/>
   </g>
   <g id="line2d_51">
    <path d="M 38.27 128.136747 
L 85.853504 127.730032 
L 104.886906 127.454427 
L 117.57584 127.402623 
L 142.953709 127.508413 
L 155.642643 127.261477 
L 171.503811 126.713408 
L 174.676045 125.22745 
L 181.020512 121.561072 
L 184.192746 119.433467 
L 190.537213 100.89186 
L 193.709447 95.097451 
L 196.88168 92.273058 
L 200.053914 91.140643 
L 203.226147 90.641806 
L 206.398381 90.936478 
L 209.570615 90.870762 
L 212.742848 88.592524 
L 215.915082 85.993376 
L 219.087316 85.189281 
L 222.259549 84.81773 
L 225.431783 84.019435 
L 228.604016 83.461353 
L 231.77625 83.690415 
L 234.948484 84.669528 
L 241.292951 87.039842 
L 247.637418 88.8654 
L 250.809652 89.571276 
L 253.981885 90.049838 
L 269.843053 91.668999 
L 276.18752 91.685155 
L 279.359754 91.682744 
L 282.531988 91.824485 
L 285.704221 92.120917 
L 288.876455 92.558687 
L 292.048688 93.141325 
L 298.393156 94.646485 
L 326.943258 102.02067 
L 352.321127 108.177247 
L 365.010061 110.814222 
L 374.526762 112.424242 
L 390.38793 114.716805 
L 403.076865 116.25192 
L 412.593565 117.145153 
L 441.143668 119.419935 
L 466.521537 121.247665 
L 479.210471 121.919646 
L 491.899406 122.42146 
L 491.899406 122.42146 
" clip-path="url(#p54721abe36)" style="fill: none; stroke: #999999; stroke-opacity: 0.33; stroke-width: 1.5; stroke-linecap: square"/>
   </g>
   <g id="line2d_52">
    <path d="M 38.27 128.136747 
L 82.68127 127.958468 
L 133.437008 127.814692 
L 146.125943 127.647622 
L 158.814877 127.256836 
L 177.848279 126.577428 
L 184.192746 126.45466 
L 187.364979 126.154543 
L 190.537213 125.017759 
L 196.88168 124.310851 
L 200.053914 122.495794 
L 203.226147 118.428072 
L 206.398381 115.243086 
L 209.570615 112.833694 
L 212.742848 110.731844 
L 215.915082 109.580812 
L 219.087316 108.856668 
L 222.259549 109.036724 
L 225.431783 109.809556 
L 231.77625 111.804834 
L 247.637418 117.05979 
L 253.981885 118.582312 
L 263.498586 120.328585 
L 269.843053 121.171084 
L 279.359754 122.173406 
L 285.704221 122.690312 
L 288.876455 122.845447 
L 292.048688 122.874363 
L 301.565389 122.564292 
L 314.254324 122.644964 
L 320.598791 122.491284 
L 323.771024 122.267599 
L 326.943258 120.104429 
L 330.115492 117.287665 
L 333.287725 115.651375 
L 336.459959 114.632471 
L 339.632193 114.076399 
L 342.804426 113.865679 
L 349.148893 113.946984 
L 358.665594 114.462558 
L 371.354529 115.438898 
L 393.560164 117.348916 
L 409.421332 118.442593 
L 472.866004 122.41932 
L 491.899406 123.11612 
L 491.899406 123.11612 
" clip-path="url(#p54721abe36)" style="fill: none; stroke: #999999; stroke-opacity: 0.33; stroke-width: 1.5; stroke-linecap: square"/>
   </g>
   <g id="line2d_53">
    <path d="M 38.27 128.136468 
L 82.68127 127.95371 
L 133.437008 127.805863 
L 146.125943 127.603388 
L 152.47041 127.308824 
L 158.814877 126.755304 
L 161.987111 126.30692 
L 165.159344 125.739845 
L 168.331578 124.827017 
L 171.503811 123.66007 
L 174.676045 121.698486 
L 177.848279 117.957189 
L 181.020512 111.46083 
L 184.192746 103.656238 
L 187.364979 95.181947 
L 190.537213 87.931988 
L 193.709447 82.961201 
L 196.88168 80.676247 
L 200.053914 79.961657 
L 209.570615 81.153819 
L 212.742848 81.818939 
L 215.915082 83.022963 
L 219.087316 84.682148 
L 222.259549 86.654944 
L 225.431783 89.008259 
L 231.77625 93.970391 
L 234.948484 96.138972 
L 238.120717 98.07067 
L 241.292951 99.778599 
L 244.465184 101.335508 
L 250.809652 103.943694 
L 253.981885 105.027963 
L 257.154119 105.920073 
L 260.326352 106.642727 
L 266.67082 107.688189 
L 273.015287 108.374124 
L 282.531988 108.989252 
L 301.565389 110.186449 
L 317.426557 110.95895 
L 330.115492 112.04794 
L 342.804426 113.223373 
L 387.215697 117.5118 
L 409.421332 119.442207 
L 425.2825 120.546409 
L 441.143668 121.440529 
L 457.004836 122.136432 
L 491.899406 123.343625 
L 491.899406 123.343625 
" clip-path="url(#p54721abe36)" style="fill: none; stroke: #999999; stroke-opacity: 0.33; stroke-width: 1.5; stroke-linecap: square"/>
   </g>
   <g id="line2d_54">
    <path d="M 38.27 128.137042 
L 82.68127 127.963485 
L 133.437008 127.823995 
L 146.125943 127.658442 
L 158.814877 127.27013 
L 184.192746 126.352139 
L 200.053914 125.945453 
L 203.226147 125.895395 
L 209.570615 120.378543 
L 212.742848 116.530073 
L 215.915082 103.601115 
L 219.087316 92.501054 
L 222.259549 85.885134 
L 225.431783 82.937047 
L 228.604016 82.412979 
L 231.77625 83.680265 
L 234.948484 86.123408 
L 241.292951 92.131115 
L 244.465184 94.827122 
L 247.637418 97.092814 
L 250.809652 98.863006 
L 253.981885 99.71323 
L 257.154119 99.250126 
L 260.326352 97.962545 
L 263.498586 96.454324 
L 266.67082 95.207161 
L 269.843053 94.487075 
L 273.015287 94.274816 
L 276.18752 94.437793 
L 279.359754 94.840697 
L 285.704221 95.973296 
L 298.393156 98.646763 
L 307.909856 100.810884 
L 336.459959 107.379494 
L 342.804426 108.212164 
L 345.97666 108.595532 
L 349.148893 108.718359 
L 352.321127 108.11941 
L 355.493361 107.680376 
L 365.010061 108.014301 
L 368.182295 108.086976 
L 377.698996 108.926446 
L 384.043463 109.177095 
L 399.904631 110.672205 
L 406.249098 111.315119 
L 428.454733 114.183364 
L 437.971434 115.093686 
L 447.488135 115.807539 
L 479.210471 117.854934 
L 491.899406 118.813897 
L 491.899406 118.813897 
" clip-path="url(#p54721abe36)" style="fill: none; stroke: #999999; stroke-opacity: 0.33; stroke-width: 1.5; stroke-linecap: square"/>
   </g>
   <g id="line2d_55">
    <path d="M 38.27 128.137245 
L 82.68127 127.966953 
L 133.437008 127.830422 
L 146.125943 127.665923 
L 158.814877 127.279212 
L 181.020512 126.334748 
L 187.364979 125.65499 
L 190.537213 125.010683 
L 193.709447 123.676912 
L 196.88168 121.887395 
L 200.053914 119.202566 
L 203.226147 114.534359 
L 212.742848 99.49086 
L 215.915082 96.371434 
L 219.087316 95.434745 
L 222.259549 95.91485 
L 225.431783 96.512425 
L 228.604016 96.749762 
L 234.948484 96.932439 
L 238.120717 97.358956 
L 244.465184 98.7058 
L 247.637418 99.541374 
L 253.981885 101.503649 
L 257.154119 102.188444 
L 263.498586 102.994033 
L 266.67082 103.632386 
L 269.843053 104.545162 
L 279.359754 107.638459 
L 282.531988 108.541045 
L 285.704221 109.291817 
L 288.876455 109.817234 
L 292.048688 110.123405 
L 295.220922 110.194586 
L 298.393156 110.005137 
L 307.909856 108.863739 
L 311.08209 108.752311 
L 314.254324 108.808937 
L 320.598791 109.233045 
L 330.115492 110.176553 
L 345.97666 112.015845 
L 384.043463 116.533497 
L 396.732397 117.694625 
L 431.626967 120.508154 
L 447.488135 121.628299 
L 460.17707 122.302047 
L 479.210471 123.04227 
L 491.899406 123.444487 
L 491.899406 123.444487 
" clip-path="url(#p54721abe36)" style="fill: none; stroke: #999999; stroke-opacity: 0.33; stroke-width: 1.5; stroke-linecap: square"/>
   </g>
   <g id="line2d_56">
    <path d="M 38.27 128.137042 
L 82.68127 127.963485 
L 133.437008 127.823995 
L 146.125943 127.658442 
L 158.814877 127.270139 
L 171.503811 126.655809 
L 174.676045 126.333935 
L 177.848279 125.895662 
L 181.020512 125.291885 
L 184.192746 124.416367 
L 187.364979 123.295423 
L 190.537213 121.243227 
L 196.88168 114.216367 
L 200.053914 110.06467 
L 203.226147 104.730797 
L 206.398381 102.320207 
L 209.570615 101.53997 
L 212.742848 101.036744 
L 219.087316 99.044093 
L 222.259549 98.706611 
L 228.604016 98.614021 
L 231.77625 98.610152 
L 234.948484 98.773755 
L 238.120717 99.227787 
L 244.465184 100.493536 
L 247.637418 100.938155 
L 253.981885 101.644706 
L 260.326352 102.776482 
L 269.843053 104.731497 
L 276.18752 105.679013 
L 282.531988 106.191565 
L 292.048688 106.818946 
L 298.393156 107.503238 
L 320.598791 110.47479 
L 326.943258 111.100153 
L 345.97666 112.517441 
L 358.665594 113.75343 
L 371.354529 114.556605 
L 384.043463 115.155368 
L 390.38793 115.454821 
L 399.904631 116.1877 
L 418.938033 117.993257 
L 434.799201 119.428955 
L 447.488135 120.400001 
L 463.349303 121.323565 
L 485.554938 122.413371 
L 491.899406 122.690575 
L 491.899406 122.690575 
" clip-path="url(#p54721abe36)" style="fill: none; stroke: #999999; stroke-opacity: 0.33; stroke-width: 1.5; stroke-linecap: square"/>
   </g>
   <g id="line2d_57">
    <path d="M 38.27 128.137298 
L 82.68127 127.967849 
L 130.264775 127.845734 
L 146.125943 127.638387 
L 161.987111 127.074157 
L 174.676045 126.528482 
L 187.364979 126.110126 
L 190.537213 125.89411 
L 200.053914 124.979567 
L 209.570615 124.487593 
L 222.259549 123.638848 
L 225.431783 122.965419 
L 228.604016 121.816303 
L 231.77625 120.96326 
L 238.120717 120.13674 
L 241.292951 119.449779 
L 244.465184 118.304397 
L 247.637418 116.489843 
L 250.809652 113.525688 
L 253.981885 110.265003 
L 257.154119 108.072291 
L 260.326352 106.507734 
L 263.498586 104.747523 
L 269.843053 99.409654 
L 273.015287 97.321028 
L 279.359754 93.690351 
L 282.531988 92.227818 
L 285.704221 91.258172 
L 288.876455 90.81861 
L 292.048688 90.848436 
L 295.220922 91.263547 
L 298.393156 91.913454 
L 301.565389 92.726803 
L 307.909856 94.722646 
L 317.426557 97.826229 
L 326.943258 100.623327 
L 336.459959 103.138383 
L 352.321127 107.227552 
L 365.010061 110.061969 
L 371.354529 111.326125 
L 380.871229 112.911925 
L 393.560164 114.773847 
L 406.249098 116.367328 
L 415.765799 117.347908 
L 431.626967 118.657486 
L 469.69377 121.476161 
L 482.382705 122.216687 
L 491.899406 122.639734 
L 491.899406 122.639734 
" clip-path="url(#p54721abe36)" style="fill: none; stroke: #999999; stroke-opacity: 0.33; stroke-width: 1.5; stroke-linecap: square"/>
   </g>
   <g id="line2d_58">
    <path d="M 38.27 128.136747 
L 82.68127 127.957962 
L 133.437008 127.807354 
L 146.125943 127.639586 
L 158.814877 127.245124 
L 181.020512 126.460602 
L 187.364979 126.335745 
L 196.88168 124.865924 
L 200.053914 124.301436 
L 203.226147 123.024401 
L 206.398381 120.206698 
L 209.570615 117.127936 
L 212.742848 113.725767 
L 215.915082 109.122375 
L 219.087316 106.540586 
L 222.259549 105.780088 
L 225.431783 105.59906 
L 228.604016 105.03281 
L 231.77625 104.169106 
L 234.948484 103.467166 
L 238.120717 103.072055 
L 241.292951 103.083952 
L 244.465184 103.343386 
L 247.637418 103.781233 
L 250.809652 104.456879 
L 257.154119 106.125712 
L 260.326352 106.747259 
L 266.67082 107.516932 
L 269.843053 108.076566 
L 273.015287 108.867104 
L 285.704221 112.623014 
L 292.048688 114.202795 
L 301.565389 116.196267 
L 307.909856 117.251092 
L 317.426557 118.571699 
L 326.943258 119.654529 
L 339.632193 120.823318 
L 349.148893 121.51488 
L 361.837828 122.215063 
L 384.043463 123.124708 
L 406.249098 123.816421 
L 428.454733 124.290445 
L 491.899406 125.131792 
L 491.899406 125.131792 
" clip-path="url(#p54721abe36)" style="fill: none; stroke: #999999; stroke-opacity: 0.33; stroke-width: 1.5; stroke-linecap: square"/>
   </g>
   <g id="line2d_59">
    <path d="M 38.27 128.137298 
L 82.68127 127.964817 
L 114.403607 127.849792 
L 123.920307 127.66886 
L 136.609242 127.203475 
L 146.125943 126.920302 
L 174.676045 125.72155 
L 193.709447 125.546912 
L 196.88168 125.281617 
L 200.053914 123.929246 
L 203.226147 123.212075 
L 206.398381 122.668116 
L 209.570615 120.122964 
L 212.742848 114.983528 
L 215.915082 111.723468 
L 219.087316 109.403438 
L 222.259549 108.303476 
L 225.431783 107.937205 
L 228.604016 108.12003 
L 231.77625 109.048804 
L 238.120717 111.540881 
L 241.292951 112.632272 
L 244.465184 113.263826 
L 247.637418 113.757862 
L 250.809652 114.118456 
L 253.981885 113.681099 
L 263.498586 110.125438 
L 266.67082 109.113732 
L 269.843053 108.268686 
L 273.015287 107.883078 
L 276.18752 107.967545 
L 282.531988 108.560159 
L 288.876455 109.247393 
L 292.048688 109.427195 
L 301.565389 109.449937 
L 304.737623 109.672007 
L 311.08209 110.49252 
L 317.426557 111.626477 
L 323.771024 112.785658 
L 326.943258 113.152428 
L 342.804426 114.035853 
L 355.493361 115.137534 
L 365.010061 115.675853 
L 377.698996 116.326733 
L 396.732397 117.653341 
L 441.143668 120.989733 
L 463.349303 122.248532 
L 482.382705 123.095621 
L 491.899406 123.43563 
L 491.899406 123.43563 
" clip-path="url(#p54721abe36)" style="fill: none; stroke: #999999; stroke-opacity: 0.33; stroke-width: 1.5; stroke-linecap: square"/>
   </g>
   <g id="line2d_60">
    <path d="M 38.27 128.137245 
L 82.68127 127.966953 
L 133.437008 127.830422 
L 146.125943 127.665923 
L 158.814877 127.279212 
L 177.848279 126.60171 
L 190.537213 126.397557 
L 193.709447 125.202573 
L 196.88168 122.625472 
L 200.053914 122.177499 
L 203.226147 120.267909 
L 206.398381 110.709386 
L 209.570615 103.647037 
L 212.742848 99.188953 
L 215.915082 97.402603 
L 219.087316 96.367536 
L 222.259549 96.753215 
L 225.431783 98.286611 
L 231.77625 102.5387 
L 238.120717 106.338509 
L 241.292951 108.009234 
L 244.465184 109.375175 
L 247.637418 110.493816 
L 253.981885 112.313493 
L 260.326352 113.786548 
L 263.498586 114.333933 
L 276.18752 115.946916 
L 288.876455 117.798587 
L 295.220922 118.56554 
L 301.565389 119.056567 
L 311.08209 119.675149 
L 314.254324 119.75563 
L 326.943258 119.255596 
L 333.287725 119.454603 
L 339.632193 119.677541 
L 345.97666 119.606504 
L 352.321127 119.540005 
L 358.665594 119.74496 
L 374.526762 120.644909 
L 396.732397 121.887166 
L 412.593565 122.589807 
L 418.938033 122.751654 
L 431.626967 122.817353 
L 441.143668 123.39253 
L 447.488135 123.737984 
L 453.832602 123.86231 
L 463.349303 124.006557 
L 485.554938 124.620066 
L 491.899406 124.58793 
L 491.899406 124.58793 
" clip-path="url(#p54721abe36)" style="fill: none; stroke: #999999; stroke-opacity: 0.33; stroke-width: 1.5; stroke-linecap: square"/>
   </g>
   <g id="line2d_61">
    <path d="M 38.27 128.135662 
L 82.68127 127.939977 
L 133.437008 127.780338 
L 146.125943 127.607789 
L 158.814877 127.208441 
L 177.848279 126.526471 
L 193.709447 126.072402 
L 196.88168 125.367127 
L 200.053914 122.155114 
L 203.226147 121.484145 
L 206.398381 119.54766 
L 209.570615 109.321516 
L 212.742848 102.365657 
L 215.915082 98.149099 
L 222.259549 94.770467 
L 225.431783 95.422561 
L 228.604016 97.500917 
L 231.77625 99.807659 
L 234.948484 101.645475 
L 238.120717 102.757227 
L 244.465184 104.308271 
L 247.637418 104.81568 
L 260.326352 106.187916 
L 263.498586 106.794359 
L 269.843053 108.303625 
L 273.015287 108.752065 
L 276.18752 108.858475 
L 279.359754 108.625231 
L 282.531988 107.946616 
L 285.704221 106.817705 
L 288.876455 105.376223 
L 292.048688 104.057872 
L 295.220922 103.22318 
L 298.393156 102.818008 
L 301.565389 102.69064 
L 304.737623 102.741222 
L 311.08209 103.194565 
L 320.598791 104.230918 
L 326.943258 105.141651 
L 342.804426 107.86119 
L 352.321127 109.537647 
L 365.010061 111.46788 
L 377.698996 113.15978 
L 390.38793 114.649974 
L 403.076865 115.94546 
L 415.765799 116.952625 
L 476.038238 121.193982 
L 491.899406 121.931061 
L 491.899406 121.931061 
" clip-path="url(#p54721abe36)" style="fill: none; stroke: #999999; stroke-opacity: 0.33; stroke-width: 1.5; stroke-linecap: square"/>
   </g>
   <g id="line2d_62">
    <path d="M 38.27 128.137245 
L 82.68127 127.966953 
L 133.437008 127.830365 
L 146.125943 127.66592 
L 158.814877 127.279212 
L 177.848279 126.601726 
L 190.537213 126.397716 
L 193.709447 125.502693 
L 196.88168 124.273728 
L 203.226147 122.652541 
L 206.398381 118.210458 
L 209.570615 112.425703 
L 212.742848 108.881927 
L 215.915082 106.583239 
L 219.087316 105.77553 
L 222.259549 105.664855 
L 225.431783 106.553559 
L 228.604016 108.025244 
L 234.948484 111.307698 
L 238.120717 112.809272 
L 244.465184 115.485037 
L 247.637418 116.625045 
L 253.981885 118.443427 
L 260.326352 119.836887 
L 266.67082 120.918046 
L 269.843053 121.164005 
L 273.015287 120.030841 
L 276.18752 117.719741 
L 279.359754 116.246144 
L 282.531988 115.350181 
L 285.704221 113.777322 
L 288.876455 105.536426 
L 292.048688 99.447661 
L 295.220922 97.054791 
L 298.393156 95.971478 
L 301.565389 95.575956 
L 304.737623 95.647529 
L 307.909856 96.027457 
L 314.254324 97.244555 
L 326.943258 99.712107 
L 342.804426 102.327225 
L 349.148893 103.626537 
L 358.665594 105.864899 
L 377.698996 110.487744 
L 384.043463 111.953617 
L 390.38793 113.202234 
L 399.904631 114.846178 
L 409.421332 116.282068 
L 418.938033 117.416797 
L 428.454733 118.293556 
L 441.143668 119.203746 
L 482.382705 121.879994 
L 491.899406 122.38037 
L 491.899406 122.38037 
" clip-path="url(#p54721abe36)" style="fill: none; stroke: #999999; stroke-opacity: 0.33; stroke-width: 1.5; stroke-linecap: square"/>
   </g>
   <g id="text_17">
    <!-- Selected members (48) -->
    <g transform="translate(194.468453 20.88)scale(0.12 -0.12)">
     <defs>
      <path id="DejaVuSans-53" d="M 3425 4513 
L 3425 3897 
Q 3066 4069 2747 4153 
Q 2428 4238 2131 4238 
Q 1616 4238 1336 4038 
Q 1056 3838 1056 3469 
Q 1056 3159 1242 3001 
Q 1428 2844 1947 2747 
L 2328 2669 
Q 3034 2534 3370 2195 
Q 3706 1856 3706 1288 
Q 3706 609 3251 259 
Q 2797 -91 1919 -91 
Q 1588 -91 1214 -16 
Q 841 59 441 206 
L 441 856 
Q 825 641 1194 531 
Q 1563 422 1919 422 
Q 2459 422 2753 634 
Q 3047 847 3047 1241 
Q 3047 1584 2836 1778 
Q 2625 1972 2144 2069 
L 1759 2144 
Q 1053 2284 737 2584 
Q 422 2884 422 3419 
Q 422 4038 858 4394 
Q 1294 4750 2059 4750 
Q 2388 4750 2728 4690 
Q 3069 4631 3425 4513 
z
" transform="scale(0.015625)"/>
      <path id="DejaVuSans-63" d="M 3122 3366 
L 3122 2828 
Q 2878 2963 2633 3030 
Q 2388 3097 2138 3097 
Q 1578 3097 1268 2742 
Q 959 2388 959 1747 
Q 959 1106 1268 751 
Q 1578 397 2138 397 
Q 2388 397 2633 464 
Q 2878 531 3122 666 
L 3122 134 
Q 2881 22 2623 -34 
Q 2366 -91 2075 -91 
Q 1284 -91 818 406 
Q 353 903 353 1747 
Q 353 2603 823 3093 
Q 1294 3584 2113 3584 
Q 2378 3584 2631 3529 
Q 2884 3475 3122 3366 
z
" transform="scale(0.015625)"/>
      <path id="DejaVuSans-74" d="M 1172 4494 
L 1172 3500 
L 2356 3500 
L 2356 3053 
L 1172 3053 
L 1172 1153 
Q 1172 725 1289 603 
Q 1406 481 1766 481 
L 2356 481 
L 2356 0 
L 1766 0 
Q 1100 0 847 248 
Q 594 497 594 1153 
L 594 3053 
L 172 3053 
L 172 3500 
L 594 3500 
L 594 4494 
L 1172 4494 
z
" transform="scale(0.015625)"/>
      <path id="DejaVuSans-64" d="M 2906 2969 
L 2906 4863 
L 3481 4863 
L 3481 0 
L 2906 0 
L 2906 525 
Q 2725 213 2448 61 
Q 2172 -91 1784 -91 
Q 1150 -91 751 415 
Q 353 922 353 1747 
Q 353 2572 751 3078 
Q 1150 3584 1784 3584 
Q 2172 3584 2448 3432 
Q 2725 3281 2906 2969 
z
M 947 1747 
Q 947 1113 1208 752 
Q 1469 391 1925 391 
Q 2381 391 2643 752 
Q 2906 1113 2906 1747 
Q 2906 2381 2643 2742 
Q 2381 3103 1925 3103 
Q 1469 3103 1208 2742 
Q 947 2381 947 1747 
z
" transform="scale(0.015625)"/>
      <path id="DejaVuSans-20" transform="scale(0.015625)"/>
      <path id="DejaVuSans-62" d="M 3116 1747 
Q 3116 2381 2855 2742 
Q 2594 3103 2138 3103 
Q 1681 3103 1420 2742 
Q 1159 2381 1159 1747 
Q 1159 1113 1420 752 
Q 1681 391 2138 391 
Q 2594 391 2855 752 
Q 3116 1113 3116 1747 
z
M 1159 2969 
Q 1341 3281 1617 3432 
Q 1894 3584 2278 3584 
Q 2916 3584 3314 3078 
Q 3713 2572 3713 1747 
Q 3713 922 3314 415 
Q 2916 -91 2278 -91 
Q 1894 -91 1617 61 
Q 1341 213 1159 525 
L 1159 0 
L 581 0 
L 581 4863 
L 1159 4863 
L 1159 2969 
z
" transform="scale(0.015625)"/>
      <path id="DejaVuSans-72" d="M 2631 2963 
Q 2534 3019 2420 3045 
Q 2306 3072 2169 3072 
Q 1681 3072 1420 2755 
Q 1159 2438 1159 1844 
L 1159 0 
L 581 0 
L 581 3500 
L 1159 3500 
L 1159 2956 
Q 1341 3275 1631 3429 
Q 1922 3584 2338 3584 
Q 2397 3584 2469 3576 
Q 2541 3569 2628 3553 
L 2631 2963 
z
" transform="scale(0.015625)"/>
      <path id="DejaVuSans-73" d="M 2834 3397 
L 2834 2853 
Q 2591 2978 2328 3040 
Q 2066 3103 1784 3103 
Q 1356 3103 1142 2972 
Q 928 2841 928 2578 
Q 928 2378 1081 2264 
Q 1234 2150 1697 2047 
L 1894 2003 
Q 2506 1872 2764 1633 
Q 3022 1394 3022 966 
Q 3022 478 2636 193 
Q 2250 -91 1575 -91 
Q 1294 -91 989 -36 
Q 684 19 347 128 
L 347 722 
Q 666 556 975 473 
Q 1284 391 1588 391 
Q 1994 391 2212 530 
Q 2431 669 2431 922 
Q 2431 1156 2273 1281 
Q 2116 1406 1581 1522 
L 1381 1569 
Q 847 1681 609 1914 
Q 372 2147 372 2553 
Q 372 3047 722 3315 
Q 1072 3584 1716 3584 
Q 2034 3584 2315 3537 
Q 2597 3491 2834 3397 
z
" transform="scale(0.015625)"/>
      <path id="DejaVuSans-28" d="M 1984 4856 
Q 1566 4138 1362 3434 
Q 1159 2731 1159 2009 
Q 1159 1288 1364 580 
Q 1569 -128 1984 -844 
L 1484 -844 
Q 1016 -109 783 600 
Q 550 1309 550 2009 
Q 550 2706 781 3412 
Q 1013 4119 1484 4856 
L 1984 4856 
z
" transform="scale(0.015625)"/>
      <path id="DejaVuSans-29" d="M 513 4856 
L 1013 4856 
Q 1481 4119 1714 3412 
Q 1947 2706 1947 2009 
Q 1947 1309 1714 600 
Q 1481 -109 1013 -844 
L 513 -844 
Q 928 -128 1133 580 
Q 1338 1288 1338 2009 
Q 1338 2731 1133 3434 
Q 928 4138 513 4856 
z
" transform="scale(0.015625)"/>
     </defs>
     <use xlink:href="#DejaVuSans-53"/>
     <use xlink:href="#DejaVuSans-65" x="63.476562"/>
     <use xlink:href="#DejaVuSans-6c" x="125"/>
     <use xlink:href="#DejaVuSans-65" x="152.783203"/>
     <use xlink:href="#DejaVuSans-63" x="214.306641"/>
     <use xlink:href="#DejaVuSans-74" x="269.287109"/>
     <use xlink:href="#DejaVuSans-65" x="308.496094"/>
     <use xlink:href="#DejaVuSans-64" x="370.019531"/>
     <use xlink:href="#DejaVuSans-20" x="433.496094"/>
     <use xlink:href="#DejaVuSans-6d" x="465.283203"/>
     <use xlink:href="#DejaVuSans-65" x="562.695312"/>
     <use xlink:href="#DejaVuSans-6d" x="624.21875"/>
     <use xlink:href="#DejaVuSans-62" x="721.630859"/>
     <use xlink:href="#DejaVuSans-65" x="785.107422"/>
     <use xlink:href="#DejaVuSans-72" x="846.630859"/>
     <use xlink:href="#DejaVuSans-73" x="887.744141"/>
     <use xlink:href="#DejaVuSans-20" x="939.84375"/>
     <use xlink:href="#DejaVuSans-28" x="971.630859"/>
     <use xlink:href="#DejaVuSans-34" x="1010.644531"/>
     <use xlink:href="#DejaVuSans-38" x="1074.267578"/>
     <use xlink:href="#DejaVuSans-29" x="1137.890625"/>
    </g>
   </g>
  </g>
 </g>
 <defs>
  <clipPath id="p54721abe36">
   <rect x="38.27" y="26.88" width="453.629406" height="111.16"/>
  </clipPath>
 </defs>
</svg>
